<svg width="1440" height="194" viewBox="0 0 1440 194" fill="none" xmlns="http://www.w3.org/2000/svg">
<g clip-path="url(#clip0_534_2769)">
<path d="M1535.06 30.7374V207.394H1445.71C1437.39 204.616 1429.08 201.62 1420.76 198.843C1318.99 164.98 1210.02 160.316 1102.71 157.316C972.448 153.765 842.077 152.097 711.705 152.542C700.174 152.542 687.979 152.542 677.67 147.21C667.248 141.882 659.487 129.667 663.256 118.675C666.362 109.792 675.342 104.796 683.768 100.691C746.069 70.5968 813.916 52.0539 882.869 45.7257C884.866 45.5031 886.752 45.2804 888.748 45.171C888.526 45.0617 888.194 44.9484 887.971 44.7257C887.526 43.9484 887.307 42.839 887.858 42.171C888.412 41.507 889.19 41.3976 889.967 41.2843C893.623 40.7296 897.284 41.6163 900.385 43.6163C899.498 42.839 899.612 41.2843 900.385 40.507C901.272 39.7296 902.604 39.6203 903.713 40.1749C904.709 40.6164 905.487 41.7296 905.819 42.839C907.26 42.3976 908.147 40.9523 909.034 39.7296C909.92 38.507 911.139 37.1749 912.694 37.2882C914.135 37.2882 915.241 38.8429 915.241 40.2843C915.241 41.6164 914.467 42.839 913.467 43.7296C951.162 42.171 988.854 44.2843 1026.1 50.2765C1037.63 52.0539 1049.05 54.3859 1060.58 56.7179C1060.36 54.7218 1060.91 52.4992 1062.46 51.6085C1065.68 49.6124 1068.45 55.9406 1069.56 58.0499C1068.89 56.9406 1069.01 55.3859 1069.89 54.4992C1070.78 53.4992 1072.33 53.2765 1073.44 54.0539C1074.44 54.8312 1074.66 56.4953 1073.88 57.3859C1074.77 56.8312 1075.65 56.2726 1076.65 56.0539C1077.65 55.8312 1078.87 55.9406 1079.54 56.7179C1080.31 57.4953 1080.42 58.8273 1079.54 59.4953C1083.53 59.1593 1087.52 59.9367 1091.06 61.714C1091.84 62.1593 1092.62 62.8234 1092.51 63.714C1136.52 73.8195 1180.42 84.589 1225.43 87.1437C1254.69 88.8078 1283.96 86.921 1312.9 82.8117C1311.79 81.9249 1310.68 81.0343 1309.9 80.257C1308.9 79.257 1308.02 77.4835 1309.13 76.5929C1309.68 76.1476 1310.46 76.1476 1311.12 76.2609C1313.12 76.5929 1315 77.3703 1316.67 78.3703C1315.56 77.2609 1315.33 75.0382 1316.67 73.9289C1317.89 72.8195 1319.99 73.2609 1321.1 74.4835C1319.66 71.2648 1319.77 67.6007 1321.32 64.4914C1322.21 62.714 1324.21 60.9367 1326.09 61.8273C1327.2 62.382 1327.64 63.6046 1327.97 64.8234C1328.97 68.3781 1328.97 72.1515 1328.08 75.7062C1329.86 73.9289 1332.41 72.9289 1334.96 72.9289C1335.4 74.5929 1334.29 76.5929 1332.63 77.0382C1333.63 76.7062 1334.63 76.3703 1335.73 76.4835C1336.73 76.5929 1337.84 77.2609 1338.06 78.2609V78.7023C1385.62 69.8195 1432.51 55.4992 1478.74 40.9523C1482.62 39.7296 1486.5 38.507 1490.39 37.3976C1487.83 37.5109 1485.17 37.6203 1482.62 37.2882C1481.29 37.1749 1479.74 36.6203 1479.3 35.3976C1479.08 34.4015 1479.63 33.2921 1480.3 32.5148C1483.18 28.9601 1487.5 26.6281 1491.94 25.9601C1496.48 25.4054 1501.14 26.5187 1504.9 29.1828C1504.24 27.8507 1503.69 26.5187 1503.58 25.0734C1503.58 23.6281 1504.02 22.1867 1505.24 21.296C1507.01 19.964 1509.78 20.7413 1511.23 22.5187C1512.78 24.1867 1513.33 26.4054 1513.78 28.6281C1514.22 27.1828 1514.77 25.6281 1515.77 24.4093C1516.77 23.1867 1518.43 22.296 1519.98 22.8546C1522.09 23.5187 1522.76 26.1828 1522.64 28.4054C1522.53 29.2921 1522.31 30.1828 1522.2 31.0695C1524.75 30.8468 1527.41 30.5148 1529.96 30.5148C1531.62 30.5148 1533.4 30.6281 1535.06 30.7374Z" fill="#13422B"/>
<mask id="mask0_534_2769" style="mask-type:luminance" maskUnits="userSpaceOnUse" x="640" y="25" width="800" height="169">
<path d="M640.312 25H1440V194H640.312V25Z" fill="white"/>
</mask>
<g mask="url(#mask0_534_2769)">
<path d="M1535.06 157.208V207.396H640.312V65.8253C668.027 47.6144 703.281 39.1769 738.754 36.0675C737.426 35.0675 736.203 33.9582 735.098 32.8488C733.656 31.2941 732.324 28.9621 733.434 27.298C734.652 25.5207 737.426 26.0753 739.086 27.4074C740.75 28.7394 741.969 30.63 743.855 31.5167C743.41 29.7394 743.078 27.4074 744.629 26.5207C745.848 25.8527 747.512 26.5207 748.176 27.7394C748.953 28.8527 749.066 30.2941 749.176 31.7355C751.391 28.7394 754.828 26.7394 758.488 26.0753C760.371 25.7433 762.699 26.0753 763.367 27.8527C763.922 29.5167 762.477 31.2941 761.258 32.4035C760.262 33.2941 759.152 33.9582 758.156 34.8488C778.223 34.0675 797.844 34.7355 815.801 36.1808C838.305 38.0675 860.699 41.2863 882.875 45.7277C889.637 46.9503 896.398 48.3917 903.16 49.9464C934.867 57.1652 966.129 66.2707 997.168 75.9308C997.168 74.7082 997.281 73.4855 997.5 72.3761C997.836 71.1535 998.387 70.0441 999.496 69.4894C1000.94 68.9347 1002.6 69.9347 1003.27 71.3761C1004.04 72.7082 1003.93 74.2628 1003.82 75.8175C1003.82 73.3761 1006.81 71.5988 1008.92 72.8214C1011.03 74.1535 1010.8 77.8175 1008.59 78.8175C1011.69 77.3722 1015.02 76.1496 1018.45 75.7082C1021.89 75.3761 1025.44 75.7082 1028.43 77.4855C1029.76 78.1496 1031.09 79.4816 1030.76 80.9269C1030.32 82.7042 1027.88 82.923 1025.99 82.8136C1023.77 82.7042 1021.56 82.8136 1019.34 82.923C1063.68 97.1378 1107.81 111.903 1152.82 123.786C1235.07 145.439 1319.77 157.208 1404.8 158.65C1404.47 158.427 1404.02 158.318 1403.69 157.986C1402.8 157.431 1401.92 156.54 1402.14 155.544C1402.47 154.431 1403.91 154.099 1405.02 154.321C1407.24 154.763 1408.9 156.763 1410.45 158.54C1409.02 156.54 1408.57 153.653 1409.57 151.321C1410.01 150.099 1411.12 148.88 1412.34 149.212C1413 149.435 1413.45 149.989 1413.78 150.544C1414.78 152.321 1415.45 154.208 1415.55 156.208C1416.55 153.876 1418.99 152.212 1421.54 152.212C1422.21 152.212 1422.87 152.321 1423.2 152.876C1423.54 153.431 1423.43 154.099 1423.09 154.544C1422.76 155.099 1422.32 155.431 1421.76 155.763C1423.65 154.986 1425.86 154.986 1427.64 155.763C1428.19 155.986 1428.64 156.318 1428.64 156.876C1428.64 157.318 1428.08 157.54 1427.64 157.763C1426.97 158.095 1426.2 158.318 1425.53 158.65C1446.15 158.54 1466.77 158.208 1487.39 156.876C1495.82 156.431 1504.35 155.763 1512.89 155.763C1512.34 155.208 1511.89 154.653 1511.67 153.986C1511 152.212 1511.56 149.767 1513.33 149.103C1514.55 148.657 1515.99 149.212 1516.88 150.212C1517.88 151.099 1518.43 152.321 1518.99 153.544C1518.65 152.653 1518.77 151.435 1519.43 150.767C1520.09 149.989 1521.43 149.767 1522.2 150.435C1522.98 150.989 1523.2 152.321 1522.42 153.099C1524.53 151.876 1527.08 151.435 1529.41 151.876C1530.41 152.099 1531.51 152.544 1531.51 153.544C1531.62 154.431 1530.74 155.099 1529.96 155.544C1529.52 155.876 1528.85 156.095 1528.41 156.318C1530.63 156.54 1532.84 156.763 1535.06 157.208Z" fill="#22784E"/>
</g>
<mask id="mask1_534_2769" style="mask-type:luminance" maskUnits="userSpaceOnUse" x="0" y="19" width="800" height="175">
<path d="M0 19.5117H799.879V194H0V19.5117Z" fill="white"/>
</mask>
<g mask="url(#mask1_534_2769)">
<mask id="mask2_534_2769" style="mask-type:luminance" maskUnits="userSpaceOnUse" x="0" y="19" width="800" height="175">
<path d="M800 19H0V194H800V19Z" fill="white"/>
</mask>
<g mask="url(#mask2_534_2769)">
<mask id="mask3_534_2769" style="mask-type:luminance" maskUnits="userSpaceOnUse" x="0" y="20" width="778" height="174">
<path d="M0 20H778V194H0V20Z" fill="white"/>
</mask>
<g mask="url(#mask3_534_2769)">
<path d="M-95.0703 30.7374V207.394H-5.71484C2.59767 204.616 10.9141 201.62 19.2266 198.843C120.996 164.98 229.973 160.316 337.285 157.316C467.543 153.765 597.914 152.097 728.285 152.542C739.817 152.542 752.012 152.542 762.32 147.21C772.742 141.882 780.504 129.667 776.731 118.675C773.629 109.792 764.649 104.796 756.223 100.691C693.922 70.5968 626.074 52.0539 557.117 45.7257C555.125 45.5031 553.238 45.2804 551.242 45.171C551.465 45.0617 551.797 44.9484 552.02 44.7257C552.465 43.9484 552.684 42.839 552.133 42.171C551.578 41.507 550.801 41.3976 550.023 41.2843C546.367 40.7296 542.707 41.6163 539.606 43.6163C540.492 42.839 540.379 41.2843 539.606 40.507C538.719 39.7296 537.387 39.6203 536.277 40.1749C535.281 40.6164 534.504 41.7296 534.172 42.839C532.731 42.3976 531.844 40.9523 530.957 39.7296C530.07 38.507 528.852 37.1749 527.297 37.2882C525.856 37.2882 524.746 38.8429 524.746 40.2843C524.746 41.6164 525.523 42.839 526.523 43.7296C488.828 42.171 451.137 44.2843 413.887 50.2765C402.359 52.0539 390.941 54.3859 379.41 56.7179C379.633 54.7218 379.078 52.4992 377.527 51.6085C374.313 49.6124 371.539 55.9406 370.43 58.0499C371.098 56.9406 370.984 55.3859 370.098 54.4992C369.211 53.4992 367.66 53.2765 366.551 54.0539C365.555 54.8312 365.332 56.4953 366.109 57.3859C365.223 56.8312 364.336 56.2726 363.336 56.0539C362.336 55.8312 361.117 55.9406 360.453 56.7179C359.676 57.4953 359.566 58.8273 360.453 59.4953C356.465 59.1593 352.473 59.9367 348.926 61.714C348.148 62.1593 347.371 62.8234 347.484 63.714C303.473 73.8195 259.57 84.589 214.563 87.1437C185.297 88.8078 156.027 86.921 127.094 82.8117C128.203 81.9249 129.313 81.0343 130.086 80.257C131.086 79.257 131.973 77.4835 130.863 76.5929C130.309 76.1476 129.531 76.1476 128.867 76.2609C126.871 76.5929 124.988 77.3703 123.324 78.3703C124.434 77.2609 124.656 75.0382 123.324 73.9289C122.105 72.8195 120 73.2609 118.891 74.4835C120.332 71.2648 120.219 67.6007 118.668 64.4914C117.781 62.714 115.785 60.9367 113.902 61.8273C112.793 62.382 112.348 63.6046 112.016 64.8234C111.02 68.3781 111.02 72.1515 111.906 75.7062C110.133 73.9289 107.582 72.9289 105.031 72.9289C104.59 74.5929 105.699 76.5929 107.359 77.0382C106.363 76.7062 105.363 76.3703 104.258 76.4835C103.258 76.5929 102.152 77.2609 101.93 78.2609V78.7023C54.3711 69.8195 7.47658 55.4992 -38.7539 40.9523C-42.6328 39.7296 -46.5117 38.507 -50.3945 37.3976C-47.8437 37.5109 -45.1836 37.6203 -42.6328 37.2882C-41.3047 37.1749 -39.75 36.6203 -39.3086 35.3976C-39.0859 34.4015 -39.6406 33.2921 -40.3047 32.5148C-43.1875 28.9601 -47.5117 26.6281 -51.9453 25.9601C-56.4922 25.4054 -61.1445 26.5187 -64.9141 29.1828C-64.25 27.8507 -63.6953 26.5187 -63.5859 25.0734C-63.5859 23.6281 -64.0273 22.1867 -65.25 21.296C-67.0234 19.964 -69.793 20.7413 -71.2344 22.5187C-72.7891 24.1867 -73.3398 26.4054 -73.7852 28.6281C-74.2266 27.1828 -74.7812 25.6281 -75.7812 24.4093C-76.7773 23.1867 -78.4414 22.296 -79.9922 22.8546C-82.0977 23.5187 -82.7656 26.1828 -82.6523 28.4054C-82.543 29.2921 -82.3203 30.1828 -82.2109 31.0695C-84.7617 30.8468 -87.4219 30.5148 -89.9687 30.5148C-91.6328 30.5148 -93.4063 30.6281 -95.0703 30.7374Z" fill="#13422B"/>
</g>
<mask id="mask4_534_2769" style="mask-type:luminance" maskUnits="userSpaceOnUse" x="0" y="25" width="800" height="169">
<path d="M0 25H799.68V194H0V25Z" fill="white"/>
</mask>
<g mask="url(#mask4_534_2769)">
<path d="M-95.0703 157.208V207.396H799.68V65.8253C771.965 47.6144 736.711 39.1769 701.238 36.0675C702.566 35.0675 703.789 33.9582 704.895 32.8488C706.336 31.2941 707.668 28.9621 706.559 27.298C705.34 25.5207 702.566 26.0753 700.906 27.4074C699.242 28.7394 698.023 30.63 696.137 31.5167C696.582 29.7394 696.914 27.4074 695.363 26.5207C694.145 25.8527 692.48 26.5207 691.816 27.7394C691.039 28.8527 690.926 30.2941 690.816 31.7355C688.598 28.7394 685.164 26.7394 681.504 26.0753C679.621 25.7433 677.293 26.0753 676.625 27.8527C676.07 29.5167 677.512 31.2941 678.73 32.4035C679.73 33.2941 680.84 33.9582 681.836 34.8488C661.77 34.0675 642.148 34.7355 624.191 36.1808C601.684 38.0675 579.289 41.2863 557.117 45.7277C550.355 46.9503 543.594 48.3917 536.832 49.9464C505.125 57.1652 473.863 66.2707 442.824 75.9308C442.824 74.7082 442.711 73.4855 442.492 72.3761C442.156 71.1535 441.605 70.0441 440.496 69.4894C439.055 68.9347 437.391 69.9347 436.727 71.3761C435.949 72.7082 436.059 74.2628 436.172 75.8175C436.172 73.3761 433.18 71.5988 431.07 72.8214C428.965 74.1535 429.188 77.8175 431.406 78.8175C428.301 77.3722 424.973 76.1496 421.539 75.7082C418.102 75.3761 414.555 75.7082 411.559 77.4855C410.23 78.1496 408.898 79.4816 409.234 80.9269C409.676 82.7042 412.113 82.923 414 82.8136C416.215 82.7042 418.434 82.8136 420.652 82.923C376.309 97.1378 332.184 111.903 287.176 123.786C204.918 145.439 120.219 157.208 35.1914 158.65C35.5234 158.427 35.9688 158.318 36.3008 157.986C37.1875 157.431 38.0742 156.54 37.8516 155.544C37.5195 154.431 36.0781 154.099 34.9688 154.321C32.75 154.763 31.0898 156.763 29.5391 158.54C30.9766 156.54 31.4219 153.653 30.4258 151.321C29.9805 150.099 28.8711 148.88 27.6523 149.212C26.9883 149.435 26.543 149.989 26.2109 150.544C25.2148 152.321 24.5469 154.208 24.4375 156.208C23.4414 153.876 21 152.212 18.4531 152.212C17.7852 152.212 17.1211 152.321 16.7891 152.876C16.457 153.431 16.5664 154.099 16.8984 154.544C17.2305 155.099 17.6758 155.431 18.2305 155.763C16.3438 154.986 14.1289 154.986 12.3555 155.763C11.8008 155.986 11.3555 156.318 11.3555 156.876C11.3555 157.318 11.9102 157.54 12.3555 157.763C13.0195 158.095 13.7969 158.318 14.4609 158.65C-6.16016 158.54 -26.7812 158.208 -47.3984 156.876C-55.8242 156.431 -64.3594 155.763 -72.8984 155.763C-72.3438 155.208 -71.8984 154.653 -71.6758 153.986C-71.0117 152.212 -71.5664 149.767 -73.3398 149.103C-74.5586 148.657 -76 149.212 -76.8867 150.212C-77.8867 151.099 -78.4375 152.321 -78.9961 153.544C-78.6641 152.653 -78.7734 151.435 -79.4375 150.767C-80.1016 149.989 -81.4336 149.767 -82.2109 150.435C-82.9844 150.989 -83.207 152.321 -82.4297 153.099C-84.5391 151.876 -87.0859 151.435 -89.418 151.876C-90.4141 152.099 -91.5234 152.544 -91.5234 153.544C-91.6328 154.431 -90.7461 155.099 -89.9688 155.544C-89.5234 155.876 -88.8594 156.095 -88.418 156.318C-90.6367 156.54 -92.8516 156.763 -95.0703 157.208Z" fill="#22784E"/>
</g>
</g>
</g>
</g>
<defs>
<clipPath id="clip0_534_2769">
<rect width="1440" height="194" fill="white"/>
</clipPath>
</defs>
</svg>
