<svg width="75" height="75" viewBox="0 0 75 75" fill="none" xmlns="http://www.w3.org/2000/svg">
<g clip-path="url(#clip0_534_2400)">
<path d="M51.4802 24.1798C51.7046 23.9852 51.9683 23.8413 52.2534 23.7579C52.5385 23.6745 52.8382 23.6536 53.1321 23.6967C53.4205 23.7374 53.6961 23.8422 53.9387 24.0035C54.1812 24.1648 54.3846 24.3783 54.5337 24.6285C54.7066 24.9738 54.8048 25.3516 54.8222 25.7373C54.9482 27.2463 54.6569 28.761 53.9802 30.1156C53.6612 30.8002 53.1981 31.4079 52.6227 31.8971C52.1636 32.2633 51.7024 32.4713 51.0356 32.2684C51.0356 32.2684 50.9488 32.2418 50.7974 32.1962C50.6511 32.7718 50.4583 33.2734 50.3717 33.5186C49.8385 34.8696 46.5218 40.1266 42.5917 40.9418L34.3665 41.434C31.783 41.0921 29.4106 39.5564 27.4528 37.369C26.1523 35.9116 25.1521 34.2119 24.5096 32.3673L24.1576 32.4625C23.4037 32.665 22.8279 32.2633 22.3688 31.8971C21.7934 31.4079 21.3303 30.8002 21.0113 30.1156C20.3346 28.761 20.0433 27.2463 20.1693 25.7373C20.1866 25.3516 20.2849 24.9738 20.4578 24.6285C20.6069 24.3783 20.8102 24.1648 21.0528 24.0035C21.2953 23.8422 21.5709 23.7374 21.8594 23.6967C22.1532 23.6536 22.453 23.6745 22.738 23.7579C23.0231 23.8413 23.2869 23.9852 23.5112 24.1798C23.5112 24.1798 23.6466 12.0797 37.032 12.0797C51.8804 12.0797 51.4802 24.1798 51.4802 24.1798Z" fill="white"/>
<path d="M22.3189 15.5229H22.3138C21.1864 16.2844 18.5758 16.6365 17.5437 16.555C16.3568 16.4432 15.2166 16.0367 14.2266 15.3726C16.4314 14.3202 18.185 11.9003 18.7613 9.51014C19.2523 7.48547 19.5428 5.4565 20.8406 3.75274C22.0254 2.24143 23.7028 1.19358 25.5806 0.791665C27.2956 0.438324 29.0776 0.618404 30.6871 1.3077C31.5688 1.72858 32.7371 2.26942 33.4379 3.48726C33.6664 3.85006 33.8755 4.22473 34.0643 4.60968L22.3189 15.5229Z" fill="#B5886A"/>
<path d="M42.8637 16.085C43.4994 18.1096 45.2945 20.3059 47.4877 21.8707C47.6328 21.976 47.7816 22.0767 47.9306 22.1777C48.1041 22.2931 48.2793 22.4033 48.4563 22.5082C49.0131 22.9147 50.5063 23.8607 51.3111 24.337C51.41 24.2431 51.4801 24.1799 51.4801 24.1799C51.8775 23.8342 52.3923 23.6542 52.9184 23.677C53.3088 22.1517 53.4529 20.5738 53.3454 19.003C53.0819 12.9597 49.9492 9.20415 46.8809 7.12962C44.1492 5.22293 40.8911 4.21531 37.56 4.247C34.1158 4.23078 30.7497 5.27329 27.9176 7.23339C25.5133 8.95638 22.0402 12.9607 21.7768 19.004C21.6935 20.5698 21.8046 22.1398 22.1075 23.6782C22.6226 23.6628 23.1246 23.8423 23.5132 24.1809C23.5132 24.1809 23.7938 24.4339 24.1284 24.7376C24.9022 24.5376 25.6498 24.247 26.3555 23.8718C29.7512 22.1701 33.5646 18.9813 36.759 16.8771C36.3579 17.8981 35.5278 20.0974 36.0782 20.006C38.1674 19.9194 40.9281 18.345 42.8637 16.085Z" fill="#B5886A"/>
<path d="M51.91 24.6094C52.201 24.3706 52.5739 24.2555 52.9488 24.2886C53.3237 24.3217 53.6706 24.5005 53.9152 24.7865C54.1906 25.1409 54.2189 25.645 54.2371 26.0742C54.2638 26.6008 54.2341 27.1287 54.1486 27.6489C53.9856 28.6518 53.6225 29.6117 53.0808 30.4713C52.6779 31.0964 52.0259 31.9106 51.1973 31.6813C50.4429 31.4725 50.121 32.6443 50.8744 32.8528C53.0041 33.442 54.4075 30.9473 54.9832 29.281C55.3322 28.2681 55.4918 27.1996 55.454 26.1289C55.4147 25.0738 55.1685 24.0589 54.2214 23.4629C53.7312 23.1675 53.1595 23.036 52.5894 23.0875C52.0193 23.139 51.4804 23.3708 51.0511 23.7494C50.9384 23.864 50.8752 24.0182 50.8752 24.1789C50.8752 24.3396 50.9384 24.4938 51.0511 24.6084C51.1665 24.7194 51.3204 24.7814 51.4806 24.7814C51.6407 24.7814 51.7946 24.7194 51.91 24.6084V24.6094Z" fill="#211715"/>
<path d="M50.3737 30.9814C50.3347 31.5716 50.2128 32.1533 50.0115 32.7095C49.9505 32.8947 49.885 33.0785 49.8184 33.2617C49.8002 33.3123 49.7797 33.3609 49.7625 33.4108C49.8301 33.2154 49.764 33.4017 49.7417 33.4492C49.4725 34.0027 49.1629 34.5356 48.8155 35.0437C47.8498 36.5593 46.6323 37.8989 45.2156 39.0047C44.3946 39.6503 43.4439 40.111 42.4284 40.3551C41.6646 40.5191 41.9878 41.6904 42.7513 41.5264C44.7676 41.0934 46.4856 39.7042 47.8558 38.2237C49.0062 37.0158 49.9778 35.6495 50.7409 34.1662C51.2383 33.1739 51.5268 32.09 51.5885 30.9817C51.6168 30.1996 50.402 30.2007 50.3737 30.9814Z" fill="#211715"/>
<path d="M23.9433 23.7504C23.5549 23.4093 23.0768 23.1869 22.5658 23.1095C22.0547 23.032 21.5322 23.1029 21.0602 23.3136C20.0602 23.7605 19.6583 24.7017 19.5644 25.7373C19.3741 27.8311 20.0048 30.1747 21.3866 31.784C22.1178 32.6356 23.1633 33.3195 24.3224 33.0479C25.0832 32.8708 24.7613 31.6982 23.9995 31.8766C23.1929 32.0657 22.4035 31.1933 21.9989 30.6001C21.1375 29.2928 20.7025 27.7507 20.7537 26.1861C20.7671 25.7497 20.779 25.2355 21.0306 24.8594C21.1459 24.7039 21.2918 24.5736 21.4591 24.4762C21.6265 24.3789 21.8119 24.3166 22.0041 24.2933C22.1963 24.2699 22.3913 24.2858 22.5771 24.3402C22.7629 24.3945 22.9358 24.4861 23.0851 24.6094C23.2009 24.7196 23.3547 24.781 23.5146 24.781C23.6745 24.781 23.8282 24.7196 23.9441 24.6094C24.0567 24.4948 24.1198 24.3405 24.1198 24.1799C24.1198 24.0192 24.0567 23.865 23.9441 23.7504H23.9433Z" fill="#211715"/>
<path d="M23.3968 30.623C24.2504 34.8116 26.9848 38.7706 30.7562 40.8433C31.8238 41.4423 32.9919 41.8412 34.203 42.0201C34.3581 42.0575 34.5216 42.0344 34.6603 41.9557C34.799 41.8769 34.9026 41.7483 34.9501 41.596C34.9917 41.4407 34.9706 41.2752 34.8912 41.1353C34.8118 40.9955 34.6806 40.8925 34.5259 40.8486C32.5012 40.569 30.6808 39.5746 29.1658 38.2262C27.5365 36.7871 26.2492 35.0023 25.3979 33.002C25.0338 32.1308 24.7563 31.2259 24.5693 30.3004C24.5265 30.1449 24.4237 30.0128 24.2835 29.9331C24.1433 29.8534 23.9772 29.8326 23.8217 29.8754C23.6662 29.9182 23.5341 30.021 23.4544 30.1612C23.3747 30.3014 23.354 30.4676 23.3968 30.623Z" fill="#211715"/>
<path d="M34.5894 4.30245C34.2369 3.47883 33.73 2.73026 33.0962 2.09708C32.4342 1.52075 31.6818 1.05747 30.8691 0.725871C28.9659 -0.0933187 26.8369 -0.224673 24.8475 0.354344C22.8457 0.926097 21.1162 2.19856 19.9746 3.93952C19.4204 4.86154 19.0092 5.86232 18.7552 6.90769C18.4827 7.92888 18.3232 8.98677 17.9937 9.99176C17.3268 12.026 15.8635 13.9032 13.9214 14.8482C13.4934 15.0562 13.5605 15.6717 13.9214 15.897C15.2984 16.7574 16.8397 17.2694 18.4741 17.1495C19.845 17.0482 21.4486 16.8179 22.6216 16.0473L22.3151 16.1303H22.3202C23.1017 16.1303 23.103 14.9155 22.3202 14.9155C22.0238 14.9155 21.7249 15.1805 21.4658 15.2898C21.163 15.4113 20.8521 15.5116 20.5354 15.59C19.8967 15.7573 19.2447 15.8694 18.5867 15.925C17.966 15.9893 17.339 15.9524 16.7301 15.816C15.9506 15.6149 15.2091 15.2878 14.5351 14.8477V15.8965C16.271 15.0519 17.6586 13.5159 18.5353 11.8142C19.4669 10.0057 19.6005 7.96735 20.2841 6.07352C20.6101 5.16713 21.1132 4.33469 21.7642 3.62475C22.4152 2.9148 23.201 2.34154 24.0758 1.93839C25.776 1.15376 27.7012 1.00479 29.5019 1.51853C30.3928 1.76447 31.23 2.17448 31.9705 2.72751C32.6807 3.27442 33.1701 4.11061 33.5396 4.91541C33.6218 5.05357 33.7549 5.15386 33.9104 5.19464C34.0659 5.23541 34.2311 5.21338 34.3705 5.13332C34.507 5.04969 34.6059 4.91662 34.6467 4.76182C34.6875 4.60703 34.667 4.44247 34.5894 4.30245Z" fill="#211715"/>
<path d="M53.5858 23.5231C54.0667 21.3326 54.1174 19.0695 53.7351 16.8597C53.4407 14.9806 52.7999 13.1725 51.8453 11.5274C50.1547 8.63925 47.4728 6.40807 44.4244 5.06167C40.4345 3.34561 35.9494 3.17289 31.8393 4.57701C30.0679 5.16098 28.4135 6.05331 26.9525 7.21287C25.8341 8.13287 24.8514 9.20646 24.0337 10.4017C21.719 13.7326 20.8745 17.7821 21.2245 21.7905C21.2751 22.3685 21.3511 22.9448 21.4573 23.515C21.501 23.67 21.6038 23.8017 21.7437 23.8816C21.8836 23.9614 22.0493 23.983 22.205 23.9417C22.3584 23.8959 22.4882 23.7925 22.5672 23.6533C22.6463 23.514 22.6685 23.3496 22.6291 23.1943C21.9273 19.4117 22.4839 15.3523 24.4404 12.0207C25.1632 10.7845 26.062 9.66003 27.1084 8.68253C27.3214 8.48428 27.5407 8.29295 27.7665 8.10854C27.8194 8.06526 27.873 8.02274 27.9264 7.97997C27.9519 7.95814 27.9785 7.9377 28.0061 7.91872C28.142 7.81648 28.28 7.71702 28.4202 7.62034C29.2062 7.08034 30.0411 6.61532 30.9141 6.23142C34.6292 4.60203 38.8152 4.40239 42.6685 5.67084C45.651 6.65895 48.2524 8.55007 50.1125 11.0823C52.2951 14.1486 53.0885 18.0393 52.6752 21.7543C52.6177 22.241 52.5309 22.7239 52.4153 23.2002C52.2358 23.9594 53.4068 24.2849 53.5865 23.5231H53.5858Z" fill="#211715"/>
<path d="M42.2832 16.2465C42.8383 17.9733 43.9536 19.4933 45.2332 20.7584C46.4348 21.9479 47.8516 22.8664 49.2661 23.7775C49.9147 24.1951 50.5677 24.6094 51.2368 24.9935C51.9158 25.3835 52.5275 24.3343 51.8498 23.9448C50.7471 23.312 49.7183 22.5657 48.6356 21.9039C47.1059 20.9762 45.7741 19.756 44.7164 18.3131C44.1732 17.5875 43.7472 16.7811 43.4537 15.9235C43.2153 15.1822 42.0421 15.4991 42.2822 16.2465H42.2832Z" fill="#211715"/>
<path d="M24.0567 25.361C24.9997 25.2258 25.9042 24.7789 26.7473 24.3519C27.6133 23.9058 28.4555 23.4147 29.2702 22.8805C31.0115 21.7568 32.6735 20.516 34.3509 19.3009C35.2453 18.6528 36.144 18.0102 37.0657 17.4028L36.1736 16.7167C35.8933 17.3985 35.6508 18.0953 35.4473 18.8039C35.2954 19.3675 35.0659 20.3631 35.84 20.5881C36.1777 20.6863 36.6302 20.5704 36.9635 20.5089C37.363 20.4331 37.7555 20.3237 38.1365 20.1816C39.0339 19.8483 39.8857 19.4034 40.6719 18.8573C41.6417 18.1913 42.5227 17.4044 43.2933 16.5155C43.802 15.9265 42.9464 15.0635 42.4329 15.6565C41.3268 16.959 39.9597 18.015 38.42 18.756C37.7971 19.0579 37.1326 19.2647 36.4485 19.3695C36.3194 19.3715 36.1907 19.382 36.063 19.4009C36.0944 19.3176 36.4358 19.6107 36.4768 19.6793C36.491 19.7046 36.4905 19.7899 36.5021 19.7425C36.5072 19.722 36.512 19.5578 36.5046 19.6324C36.4983 19.6977 36.5201 19.5434 36.5251 19.5168C36.5527 19.3735 36.5884 19.2316 36.6264 19.0908C36.829 18.3946 37.0683 17.7096 37.3434 17.0386C37.537 16.5453 36.8724 16.0749 36.4512 16.3527C33.1427 18.5363 30.11 21.1613 26.6116 23.0521C25.7182 23.5368 24.7522 24.0429 23.7343 24.1897C23.5795 24.2333 23.4481 24.3363 23.3687 24.4761C23.2893 24.616 23.2683 24.7815 23.3101 24.9368C23.3565 25.0899 23.4599 25.2192 23.5989 25.2982C23.738 25.3771 23.9021 25.3996 24.0572 25.361H24.0567Z" fill="#211715"/>
<path d="M35.3057 35.9175C35.9703 36.5682 37.018 36.7613 37.9107 36.7606C38.8033 36.7598 39.8513 36.5685 40.5174 35.9175C41.077 35.3699 40.2178 34.5112 39.6584 35.0586C39.6331 35.0839 39.5152 35.1747 39.603 35.1127C39.6908 35.0507 39.5339 35.1578 39.5018 35.1775C39.4456 35.2122 39.3874 35.2441 39.3282 35.2739C39.2884 35.2939 39.2479 35.3122 39.2074 35.3306C39.2834 35.2957 39.2581 35.3109 39.1953 35.3329C38.7848 35.4845 38.3493 35.5567 37.9119 35.5458C37.4826 35.56 37.0547 35.4907 36.6518 35.3418C36.6295 35.3337 36.479 35.2658 36.6161 35.3306C36.5825 35.3147 36.5483 35.2998 36.5149 35.2833C36.4491 35.2512 36.3846 35.216 36.322 35.1775C36.2738 35.149 36.2273 35.1175 36.1828 35.0834C36.1907 35.0684 36.3051 35.1904 36.218 35.1074C36.2008 35.091 36.1828 35.0753 36.1659 35.0586C35.6068 34.5114 34.7471 35.3696 35.3069 35.9175H35.3057Z" fill="#211715"/>
<path d="M37.7774 30.0574C37.9011 30.5041 38.0001 30.9572 38.074 31.4147L38.0522 31.2532C38.0611 31.3154 38.0628 31.3783 38.0573 31.4408L38.0791 31.2793C38.0749 31.308 38.068 31.3362 38.0586 31.3636L38.1198 31.2183C38.1114 31.2373 38.1014 31.2555 38.09 31.2727L38.1849 31.1497C38.1717 31.1659 38.1569 31.1806 38.1406 31.1935L38.2636 31.0984C38.2291 31.1198 38.1931 31.1388 38.156 31.1553L38.301 31.0941C38.243 31.119 38.1821 31.1368 38.1198 31.147L38.2813 31.1252C38.2248 31.1319 38.1677 31.1319 38.1112 31.1252L38.2727 31.147C38.2086 31.1381 38.1461 31.1216 38.0816 31.1138C37.9233 31.0769 37.7569 31.0987 37.6134 31.175C37.4743 31.2563 37.3732 31.3895 37.3324 31.5454C37.2915 31.7012 37.3142 31.8668 37.3955 32.0059C37.434 32.0745 37.486 32.1346 37.5485 32.1824C37.6109 32.2303 37.6824 32.265 37.7587 32.2843C37.8966 32.303 38.0307 32.3385 38.1712 32.3445C38.3789 32.346 38.5839 32.2977 38.7692 32.2038C38.885 32.1522 38.9877 32.0752 39.0697 31.9785C39.1516 31.8818 39.2108 31.7679 39.2427 31.6453C39.2844 31.4432 39.2821 31.2346 39.2362 31.0336C39.1623 30.5962 39.0613 30.163 38.9487 29.734C38.9058 29.5787 38.8031 29.4467 38.663 29.3672C38.5229 29.2876 38.3569 29.267 38.2016 29.3098C38.0462 29.3526 37.9143 29.4554 37.8347 29.5955C37.7552 29.7356 37.7346 29.9016 37.7774 30.0569V30.0574Z" fill="#211715"/>
<path d="M30.5924 26.5133C30.3707 27.2334 30.5152 28.89 31.8796 29.0313C33.6828 29.0204 33.7777 27.0175 33.1718 26.0755C32.6747 25.3046 31.2134 24.9837 30.5924 26.5133Z" fill="#211715"/>
<path d="M44.9774 26.5132C45.1991 27.2335 45.0546 28.8902 43.6902 29.0311C41.887 29.0203 41.7921 27.0171 42.398 26.0754C42.895 25.3042 44.3576 24.9838 44.9774 26.5132Z" fill="#211715"/>
<path d="M14.2514 61.7544C13.8593 61.7684 13.4712 61.8381 13.0986 61.9614C11.5728 62.712 10.2849 62.4503 9.19331 61.9247C7.45437 61.0877 7.17978 59.7899 7.17471 58.3056L7.10208 58.2762C6.49139 59.3898 6.19933 61.6693 6.27829 62.3886C6.44862 63.9405 6.81103 64.5345 7.55004 65.3902C8.42824 66.4071 9.89941 66.7146 11.137 66.691C12.2856 66.698 13.3937 66.2672 14.236 65.4863C14.2408 64.4297 14.2459 63.1625 14.2514 61.7544Z" fill="white"/>
<path d="M68.4742 60.0336C68.6537 60.8048 68.7343 61.5958 68.7139 62.3873C68.5436 63.9392 68.1811 64.5332 67.4421 65.3889C66.5637 66.406 65.0928 66.7133 63.8552 66.6897C62.7005 66.6972 61.5867 66.2626 60.7423 65.4749C60.7372 64.4203 60.7321 63.1557 60.7266 61.7513C61.1235 61.7644 61.5165 61.8345 61.8935 61.9593C63.4191 62.71 64.7073 62.4483 65.7989 61.9226C67.5978 61.0568 67.8299 59.698 67.8172 58.1492C68.1352 58.7383 68.357 59.3745 68.4742 60.0336Z" fill="white"/>
<path d="M15.056 61.8834C15.1046 62.0662 15.1156 62.2569 15.0881 62.444C15.0444 62.7358 14.9693 63.022 14.8641 63.2977C14.6872 63.7882 14.4465 64.2533 14.1482 64.681C14.1144 64.7392 14.0735 64.793 14.0264 64.8412C13.9751 64.8996 13.9208 64.9552 13.8637 65.008C13.6123 65.2338 13.3367 65.4312 13.0419 65.5964C12.5044 65.8951 11.9028 66.0601 11.2881 66.0773C10.0614 66.1297 8.75495 65.8652 7.92357 64.8971C7.24466 64.1261 6.87032 63.134 6.87074 62.1066C6.87847 61.5273 6.94281 60.9502 7.06283 60.3834C7.16204 59.7591 7.35111 59.1525 7.62417 58.5825C7.9919 57.8928 6.94363 57.2783 6.57539 57.9692C5.94977 59.142 5.702 60.6147 5.65873 61.932C5.61952 63.2323 6.04704 64.5036 6.86391 65.5159C7.87321 66.7755 9.37753 67.289 10.9603 67.2992C11.7487 67.3154 12.5314 67.1613 13.2548 66.8474C13.8893 66.5759 14.4575 66.1701 14.9201 65.6579C15.3732 65.0931 15.7303 64.4577 15.9772 63.777C16.2432 63.0906 16.4348 62.2884 16.2272 61.561C16.0131 60.8106 14.8406 61.1308 15.056 61.8839V61.8834Z" fill="#211715"/>
<path d="M58.7658 61.5605C58.6208 62.2226 58.6781 62.913 58.9303 63.5422C59.1365 64.1633 59.4278 64.7528 59.7959 65.294C60.6194 66.4777 62.0438 67.1572 63.4562 67.2779C64.9747 67.4072 66.7413 67.0481 67.8128 65.8893C68.7409 64.9024 69.2811 63.6134 69.3341 62.2598C69.3438 61.5791 69.2765 60.8994 69.1334 60.2339C69.0127 59.4469 68.771 58.6834 68.4169 57.9703C68.0489 57.2801 66.9997 57.8931 67.3681 58.5835C67.8652 59.5159 68.057 60.74 68.113 61.8055C68.1824 62.8023 67.8995 63.7919 67.3135 64.6013C66.9666 65.0889 66.4978 65.4768 65.9539 65.7263C65.3986 65.951 64.8066 66.0711 64.2076 66.0806C63.0075 66.1203 61.7889 65.7614 60.9649 64.8405C60.638 64.4189 60.3754 63.9513 60.1854 63.4528C60.0698 63.1631 59.9818 62.8631 59.9227 62.5569C59.8754 62.3341 59.8798 62.1035 59.9353 61.8827C60.1502 61.1295 58.9784 60.8081 58.7641 61.5598L58.7658 61.5605Z" fill="#211715"/>
<path d="M36.9388 41.3728C33.2455 38.8976 18.6915 36.2284 14.8484 36.1405C14.782 36.1389 14.7159 36.1505 14.6541 36.1747C14.5923 36.199 14.5359 36.2354 14.4883 36.2817C14.4408 36.3281 14.403 36.3835 14.3772 36.4447C14.3514 36.5059 14.3382 36.5717 14.3382 36.6381C14.3296 41.2144 14.2529 63.5345 14.2266 67.9658C14.2276 68.0894 14.2741 68.2084 14.3572 68.2999C14.4404 68.3915 14.5543 68.4492 14.6773 68.4621C18.2855 68.7627 33.5004 72.7025 36.9446 74.2954C37.282 74.4292 37.6579 74.4279 37.9944 74.2919C41.4277 72.6747 56.5406 68.6572 60.2971 68.4575C60.4223 68.4485 60.5394 68.3924 60.625 68.3007C60.7106 68.2089 60.7584 68.0882 60.7587 67.9627C60.7334 63.5224 60.6557 41.1931 60.6471 36.631C60.6472 36.5019 60.5961 36.378 60.5049 36.2865C60.4138 36.1949 60.2901 36.1433 60.1609 36.1428C55.7942 36.1114 41.8757 39.0824 37.9886 41.407C37.8253 41.4918 37.643 41.5332 37.4592 41.5272C37.2754 41.5212 37.0961 41.468 36.9388 41.3728Z" fill="#F4B467"/>
<path d="M15.9785 34.0951C18.9722 34.2469 32.9252 36.6006 37.4549 40.4662C42.2797 36.5627 54.0119 34.2882 58.761 34.006C58.7961 34.0041 58.8312 34.0093 58.8641 34.0215C58.8971 34.0336 58.9272 34.0523 58.9527 34.0765C58.9781 34.1007 58.9984 34.1299 59.0122 34.1622C59.0259 34.1945 59.033 34.2293 59.0328 34.2644V36.1851C53.7785 36.5492 41.5794 39.256 37.9816 41.4082C37.8183 41.4926 37.6361 41.5337 37.4524 41.5275C37.2688 41.5213 37.0897 41.468 36.9326 41.3728C33.4729 39.054 20.4821 36.5642 15.6953 36.1871V36.1752C15.6953 35.6467 15.7032 34.7804 15.7075 34.3487C15.7078 34.314 15.7151 34.2797 15.7291 34.2479C15.7431 34.2162 15.7633 34.1875 15.7887 34.1638C15.814 34.1401 15.8439 34.1218 15.8765 34.11C15.9092 34.0982 15.9439 34.0931 15.9785 34.0951Z" fill="white"/>
<path d="M16.31 36.1752C16.31 35.8472 16.3116 35.5191 16.315 35.191C16.3162 35.0541 16.3176 34.9172 16.3191 34.7802C16.3191 34.7043 16.3254 34.6266 16.3211 34.5507C16.3087 34.3189 16.3945 34.5431 16.2087 34.6291L15.9022 34.7119C16.3075 34.699 16.7131 34.7299 17.1117 34.804C17.2298 34.8177 17.3479 34.8319 17.466 34.8468L17.6543 34.8706C17.6938 34.8759 17.9049 34.904 17.7622 34.8847C18.0659 34.9257 18.3687 34.9692 18.6707 35.0151C20.1447 35.2386 21.6116 35.5081 23.0708 35.8123C26.4596 36.5184 29.86 37.3799 33.0709 38.6909C33.8266 38.9972 34.5647 39.3455 35.2816 39.7341C35.62 39.9198 35.9523 40.1172 36.2739 40.3308C36.416 40.425 36.5556 40.5225 36.6928 40.6234C36.7225 40.6452 36.7519 40.6671 36.7811 40.6892C36.9249 40.7978 36.6908 40.6158 36.8292 40.7272C36.8977 40.7822 36.9652 40.838 37.0317 40.8947C37.1483 41.0033 37.3018 41.0636 37.4612 41.0636C37.6205 41.0636 37.774 41.0033 37.8906 40.8947C38.3751 40.5176 38.8842 40.1733 39.4147 39.8642C40.0327 39.5005 40.6723 39.1738 41.323 38.8723C42.7472 38.2265 44.2113 37.6725 45.7064 37.2136C48.7393 36.2659 51.8382 35.5441 54.9778 35.0543C55.7161 34.9371 56.3047 34.8539 57.0174 34.7711C57.331 34.7349 57.6453 34.7018 57.9599 34.6734C58.2551 34.6277 58.554 34.6103 58.8525 34.6215L58.5458 34.5385C58.3281 34.4358 58.4516 34.1359 58.4316 34.3538C58.4253 34.4234 58.4316 34.4968 58.4316 34.5669V36.2031C58.4316 36.9848 59.6464 36.9861 59.6464 36.2031V34.5431C59.6464 34.1996 59.6323 33.8747 59.3564 33.6198C59.0274 33.3161 58.5579 33.408 58.1517 33.4427C56.5783 33.5745 55.0115 33.8089 53.4575 34.0855C49.6286 34.7688 45.7947 35.7184 42.1862 37.1858C40.3625 37.9276 38.5732 38.7972 37.0317 40.0365H37.8906C36.6829 39.013 35.2497 38.3006 33.7998 37.6884C32.0406 36.9613 30.2368 36.3471 28.3995 35.8495C25.055 34.9149 21.6514 34.2069 18.2116 33.7302C17.5944 33.6454 16.9758 33.5639 16.3545 33.5128C15.903 33.4756 15.4487 33.4984 15.2047 33.9585C15.0488 34.2523 15.1035 34.657 15.1012 34.9802C15.0974 35.3785 15.0944 35.7766 15.0941 36.175C15.0941 36.9567 16.3089 36.958 16.3089 36.175L16.31 36.1752Z" fill="#211715"/>
<path d="M37.2443 40.8476C36.3032 40.2704 35.296 39.8085 34.2445 39.4719C32.8526 38.9728 31.4265 38.5658 29.9955 38.1936C26.8348 37.3713 23.6257 36.7181 20.4037 36.1942C19.0894 35.9806 17.7701 35.7865 16.4457 35.6488C15.9901 35.6015 15.5313 35.5602 15.0727 35.5405C14.8787 35.5147 14.6813 35.5348 14.4964 35.599C14.3115 35.6633 14.1442 35.7699 14.008 35.9105C13.7938 36.1882 13.6942 36.5375 13.7296 36.8864C13.7254 38.9242 13.7196 40.962 13.7121 42.9999C13.7029 46.0175 13.6928 49.0351 13.682 52.0527C13.6714 55.0924 13.6602 58.1321 13.6484 61.172C13.6403 63.2763 13.6312 65.3807 13.621 67.4852C13.621 67.6325 13.6142 67.7805 13.6188 67.9276C13.6154 68.1892 13.703 68.4438 13.8665 68.6481C14.0299 68.8524 14.2592 68.9936 14.5152 69.0477C14.727 69.0897 14.9523 69.0971 15.1669 69.1236C15.2681 69.136 15.0236 69.1026 15.1922 69.1272L15.3296 69.1472C15.4477 69.1641 15.5663 69.1824 15.6854 69.2024C16.8456 69.3907 17.9973 69.6344 19.1448 69.8875C22.2006 70.5617 25.236 71.3331 28.2536 72.1604C30.8127 72.8619 33.3955 73.5665 35.8787 74.509C35.9754 74.5458 36.0717 74.5832 36.1677 74.6211C36.2158 74.64 36.2637 74.6593 36.3115 74.6788C36.3391 74.69 36.5023 74.7583 36.4079 74.7183C36.3259 74.6834 36.5344 74.774 36.581 74.7942C36.8017 74.8984 37.0382 74.9651 37.2808 74.9916C37.6949 75.0161 38.1079 74.9277 38.4758 74.736L38.5867 74.6874L38.6525 74.6591C38.7246 74.628 38.5356 74.7077 38.61 74.6773C38.7077 74.6373 38.8054 74.5971 38.9036 74.5584C39.9539 74.1425 41.031 73.7925 42.1078 73.4531C45.0914 72.5127 48.1133 71.6876 51.1465 70.9223C53.7973 70.2547 56.4729 69.5883 59.1793 69.1849C59.2315 69.177 59.2839 69.1695 59.336 69.1621C59.396 69.1535 59.5314 69.1355 59.3894 69.154C59.4964 69.1401 59.6035 69.1267 59.7106 69.1145C59.8956 69.0938 60.0806 69.0819 60.2658 69.0654C60.5483 69.0572 60.8174 68.9436 61.0203 68.7468C61.2232 68.5501 61.345 68.2846 61.3619 68.0025C61.3718 67.8446 61.364 67.6841 61.3619 67.5259C61.357 66.659 61.3529 65.7924 61.3495 64.926C61.3382 62.2433 61.3278 59.5606 61.3181 56.878C61.3065 53.7411 61.2954 50.6039 61.285 47.4665C61.2762 44.8049 61.2678 42.1432 61.2597 39.4813C61.2571 38.6324 61.2549 37.7837 61.2528 36.9352C61.2784 36.649 61.2311 36.361 61.1152 36.098C60.9984 35.9063 60.8298 35.7515 60.6288 35.6515C60.4278 35.5516 60.2027 35.5105 59.9793 35.5332C59.4732 35.5382 58.967 35.5744 58.4621 35.6205C55.4027 35.9412 52.3666 36.4551 49.3721 37.159C46.2797 37.8448 43.1716 38.6167 40.2024 39.7348C39.6479 39.9439 39.0974 40.1674 38.5609 40.4182C38.3425 40.5194 38.1263 40.628 37.915 40.7444C37.689 40.8692 37.4987 40.9975 37.2431 40.8444C36.5699 40.4437 35.9582 41.4935 36.6301 41.8934C36.8575 42.0283 37.1134 42.1078 37.3771 42.1256C37.6409 42.1434 37.9052 42.099 38.1486 41.9959C38.3812 41.8934 38.5978 41.7514 38.8251 41.6363C39.2857 41.4028 39.7589 41.195 40.2424 41.0137C41.5713 40.4966 42.9364 40.073 44.3071 39.6822C47.4851 38.7832 50.7068 38.0467 53.9597 37.4756C55.3573 37.2275 56.6629 37.02 58.0106 36.8793C58.5421 36.8229 59.0778 36.7768 59.6131 36.7563C59.7213 36.7523 59.8294 36.7494 59.9376 36.7477C59.9849 36.7507 60.0324 36.7507 60.0798 36.7477C60.0737 36.7477 60.158 36.749 60.1583 36.7477C60.1441 36.7933 60.0451 36.6718 60.0532 36.6748C59.9986 36.6591 60.0591 36.6019 60.037 36.6809C60.033 36.7172 60.033 36.7539 60.037 36.7902C60.037 36.8689 60.037 36.9479 60.037 37.0266C60.0416 39.0658 60.0475 41.1048 60.0547 43.1436C60.064 46.1077 60.0739 49.0718 60.0844 52.0357C60.095 55.0332 60.106 58.0307 60.1175 61.0283C60.1256 63.1299 60.1346 65.2315 60.1446 67.3331C60.1446 67.4895 60.1454 67.6457 60.1471 67.8018C60.1446 67.833 60.1446 67.8643 60.1471 67.8954C60.1648 68.0015 60.1218 67.9129 60.1681 67.8921C60.2947 67.8355 60.2225 67.8501 60.1021 67.8595C59.6465 67.8949 59.191 67.9595 58.7385 68.0288C57.5518 68.211 56.3747 68.4547 55.2021 68.7121C52.1669 69.3762 49.1534 70.1509 46.1617 70.9863C43.661 71.6843 41.1378 72.3902 38.715 73.3304C38.4869 73.4188 38.2606 73.5116 38.036 73.6088C37.9568 73.6427 37.8773 73.6766 37.7988 73.7128C37.7735 73.725 37.6569 73.768 37.753 73.7358C37.6607 73.7683 37.5637 73.7854 37.4658 73.7865C37.3679 73.7869 37.2707 73.771 37.178 73.7394C37.2557 73.7647 37.1841 73.7394 37.1472 73.7244C37.0257 73.6738 36.9055 73.6197 36.784 73.5688C36.5967 73.4905 36.4082 73.4154 36.2186 73.3436C35.1632 72.9419 34.0851 72.5997 33.0065 72.268C30.0803 71.368 27.121 70.5723 24.1521 69.8267C21.5453 69.172 18.9244 68.5271 16.2744 68.0741C15.8254 67.9982 15.3741 67.9278 14.9214 67.878C14.8897 67.8744 14.7247 67.8365 14.7027 67.8562C14.8156 67.755 14.8163 68.1002 14.8305 67.8613C14.8399 67.7049 14.8323 67.5454 14.833 67.3885C14.8376 66.5194 14.8417 65.6505 14.8452 64.7817C14.8565 62.1401 14.8669 59.4983 14.8763 56.8564C14.8878 53.7567 14.8987 50.6568 14.909 47.5569C14.9176 44.9287 14.926 42.3004 14.9343 39.6721C14.9368 38.8146 14.9391 37.9572 14.9411 37.0997C14.9411 37.0253 14.9889 36.7034 14.9411 36.6508C15.0244 36.7444 14.7093 36.7118 14.9447 36.7505C15.0415 36.7599 15.1387 36.7642 15.236 36.7634C15.7072 36.7887 16.1774 36.834 16.6464 36.8854C16.9312 36.9164 17.2157 36.9502 17.4998 36.9866L17.7045 37.0119L17.8427 37.0301C18.0082 37.0524 18.1737 37.0754 18.339 37.099C19.037 37.1982 19.7338 37.3061 20.4292 37.4227C21.9848 37.6817 23.5348 37.973 25.0791 38.2966C28.0766 38.923 31.0919 39.6232 33.9765 40.6642C34.2559 40.7654 34.5337 40.8709 34.8097 40.9808C34.8793 41.0086 34.9484 41.037 35.0175 41.0656C35.1146 41.1055 34.9668 41.0425 35.0984 41.0997C35.2182 41.1519 35.3376 41.2045 35.4563 41.2592C35.8626 41.4411 36.2543 41.6542 36.6278 41.8964C37.2833 42.3315 37.8925 41.2797 37.2443 40.8476Z" fill="#211715"/>
<path d="M36.9181 43.6592C36.9181 46.8349 36.9047 50.0116 36.8956 53.1868C36.8829 57.5438 36.871 61.9011 36.8597 66.2585C36.8556 68.0147 36.8529 69.7707 36.8516 71.5265C36.8516 72.3082 38.0664 72.3095 38.0664 71.5265C38.0664 67.9158 38.0739 64.3056 38.0889 60.696C38.1005 56.4611 38.1125 52.2261 38.1248 47.9912C38.1284 46.5473 38.1311 45.1034 38.1329 43.6594C38.1329 42.8777 36.9181 42.8761 36.9181 43.6592Z" fill="#211715"/>
<path d="M7.80043 52.8691C7.89597 52.5412 8.04604 52.2317 8.24434 51.9537C8.53817 51.5895 8.98132 50.9472 9.43838 50.7186C10.6466 49.7316 13.3528 50.0634 14.6332 50.4909C15.5486 50.7946 16.7085 51.2734 17.2817 52.063C17.8273 52.8159 17.8782 53.787 16.5313 54.0059C17.0724 54.2535 17.6094 54.5835 17.863 55.0026C18.33 55.7745 18.1356 56.7261 17.2498 57.1173C17.3822 57.227 17.5006 57.3524 17.6023 57.4909C18.166 58.2555 18.2948 59.6616 16.7305 59.8603C16.8593 59.9898 16.9578 60.1462 17.019 60.3183C17.2814 61.0396 16.934 61.5458 16.238 61.7199C15.5114 61.9014 14.3199 61.5428 13.0959 61.9631C11.5701 62.7138 10.2822 62.4521 9.19062 61.9264C6.85946 60.8045 7.15962 58.8548 7.21353 56.7365C7.19524 55.7457 7.30307 54.7566 7.53444 53.7931C7.60631 53.5312 7.69135 53.1956 7.80043 52.8691Z" fill="white"/>
<path d="M17.0195 54.5159C17.7235 54.278 18.2684 53.759 18.2517 52.9721C18.2223 52.6244 18.1223 52.2863 17.9577 51.9786C17.7932 51.6708 17.5676 51.3999 17.2948 51.1823C16.2954 50.3274 14.9222 49.841 13.637 49.6233C12.344 49.4044 10.9037 49.3295 9.67903 49.8713C8.43715 50.4203 7.51745 51.6877 7.13226 52.9843C6.89436 53.7587 6.73887 54.5561 6.66835 55.3632C6.60787 56.1245 6.60356 56.8921 6.58003 57.6552C6.54206 58.8879 6.58003 60.207 7.35876 61.2312C8.22507 62.3721 9.80735 63.0431 11.2249 63.0367C11.6203 63.0336 12.0137 62.9801 12.3956 62.8775C12.854 62.7551 13.267 62.5146 13.7332 62.422C14.4899 62.2701 15.2588 62.442 16.019 62.3658C16.8517 62.282 17.634 61.7863 17.7114 60.8913C17.7299 60.4858 17.623 60.0844 17.4052 59.7419C17.1873 59.3993 16.8692 59.1322 16.4941 58.977C14.8151 58.2251 13.0033 58.2132 11.2135 58.4347C11.0539 58.4394 10.9022 58.505 10.7893 58.6179C10.6764 58.7307 10.6108 58.8825 10.6061 59.0421C10.6069 59.2029 10.6712 59.3569 10.7849 59.4706C10.8987 59.5843 11.0527 59.6486 11.2135 59.6495C11.941 59.5434 12.6756 59.4939 13.4107 59.5017C14.0628 59.5402 14.7075 59.6592 15.3304 59.856C15.71 59.9635 16.2415 60.0693 16.4295 60.4659C16.4702 60.5331 16.4947 60.6089 16.5012 60.6871C16.5077 60.7654 16.496 60.8442 16.467 60.9172C16.3491 61.0499 16.1852 61.1329 16.0084 61.1492C15.4433 61.2462 14.7508 61.112 14.1467 61.1538C13.7773 61.1729 13.4113 61.2348 13.0562 61.3383C12.6674 61.4595 12.3174 61.6531 11.9153 61.7432C11.3497 61.8509 10.7671 61.8307 10.2103 61.6841C9.6535 61.5375 9.13655 61.2682 8.69732 60.8959C7.96161 60.2541 7.80293 59.386 7.78622 58.46C7.77661 57.9131 7.80849 57.3661 7.82393 56.8195C7.82087 56.1068 7.86738 55.3948 7.96313 54.6885C8.06939 54.0682 8.2316 53.4587 8.44778 52.8676C8.662 52.3627 8.97971 51.9083 9.38039 51.5338C10.0708 50.8313 11.0449 50.663 12.057 50.6812C13.2103 50.6978 14.3479 50.9515 15.399 51.4265C15.9472 51.6778 16.5492 51.9977 16.8701 52.5312C16.9306 52.6229 16.9769 52.7232 17.0076 52.8286C17.0356 52.9003 17.0465 52.9775 17.0395 53.0541C17.028 53.0951 17.0122 53.1348 16.9924 53.1726C16.9094 53.2532 16.8078 53.3121 16.6965 53.3439C15.9596 53.5927 16.2757 54.7665 17.0195 54.5154V54.5159Z" fill="#211715"/>
<path d="M11.2906 53.6086C11.9895 53.5402 12.6948 53.5762 13.3831 53.7154C14.1385 53.8407 14.8818 54.0305 15.6049 54.2826C16.1713 54.4825 16.8896 54.7315 17.278 55.2162C17.3642 55.3086 17.4286 55.4192 17.4664 55.5397C17.5042 55.6603 17.5146 55.7878 17.4967 55.9129C17.4788 56.038 17.4331 56.1575 17.363 56.2626C17.2929 56.3677 17.2001 56.4558 17.0915 56.5203C16.4216 56.9217 17.0318 57.9725 17.7047 57.5694C18.1243 57.3274 18.443 56.9428 18.6027 56.4855C18.7624 56.0283 18.7525 55.5288 18.5748 55.0783C18.215 54.1586 17.3408 53.6802 16.4743 53.3201C15.6468 52.9836 14.7862 52.7353 13.9067 52.5793C12.9415 52.3738 11.9493 52.3257 10.9687 52.4371C10.8139 52.4807 10.6825 52.5836 10.6031 52.7235C10.5237 52.8634 10.5026 53.0289 10.5445 53.1842C10.5908 53.3373 10.6942 53.4667 10.8332 53.5457C10.9723 53.6247 11.1364 53.6472 11.2916 53.6086H11.2906Z" fill="#211715"/>
<path d="M11.0678 56.6671C12.5357 56.5072 14.0735 56.7648 15.5112 57.0607C16.2011 57.2026 16.926 57.4069 17.2575 58.0907C17.4777 58.5463 17.4582 58.9765 16.9341 59.2063C16.7957 59.2883 16.6953 59.4216 16.6545 59.5771C16.6137 59.7327 16.6359 59.8981 16.7161 60.0374C16.8001 60.1735 16.9333 60.2721 17.088 60.3127C17.2427 60.3533 17.4071 60.3327 17.547 60.2553C18.4272 59.8684 18.7482 58.914 18.5176 58.0219C18.2658 57.048 17.4835 56.3869 16.5572 56.0749C15.7037 55.8253 14.8284 55.6576 13.9431 55.574C12.9931 55.4191 12.028 55.3783 11.0683 55.4523C10.9087 55.4569 10.7569 55.5224 10.6439 55.6353C10.531 55.7482 10.4655 55.9001 10.4609 56.0597C10.4619 56.2205 10.5262 56.3744 10.6399 56.4881C10.7536 56.6018 10.9076 56.6661 11.0683 56.6671H11.0678Z" fill="#211715"/>
<path d="M67.1914 52.8691C67.0958 52.5412 66.9458 52.2317 66.7475 51.9537C66.4536 51.5895 66.0102 50.9472 65.5534 50.7186C64.3452 49.7316 61.639 50.0634 60.3586 50.4909C59.4432 50.7946 58.2821 51.2734 57.7101 52.063C57.1645 52.8159 57.1136 53.787 58.4605 54.0059C57.9192 54.2535 57.3824 54.5835 57.1288 55.0026C56.6618 55.7745 56.8562 56.7261 57.742 57.1173C57.6096 57.2269 57.4912 57.3524 57.3895 57.4909C56.8258 58.2555 56.697 59.6616 58.2611 59.8603C58.1325 59.9899 58.034 60.1463 57.9728 60.3183C57.7104 61.0396 58.0578 61.5458 58.7538 61.7199C59.4804 61.9014 60.6719 61.5428 61.8959 61.9631C63.4214 62.7138 64.7096 62.4521 65.8012 61.9264C68.1323 60.8045 67.8322 58.8548 67.7783 56.7365C67.7966 55.7457 67.6887 54.7566 67.4574 53.7931C67.386 53.5312 67.3005 53.1956 67.1914 52.8691Z" fill="white"/>
<path d="M58.2995 53.3444C58.212 53.3166 58.1291 53.2757 58.0538 53.2231C57.9832 53.1639 57.9913 53.1725 57.9685 53.1004C57.9518 53.0529 57.9482 53.0017 57.9581 52.9523C57.9784 52.8666 58.0038 52.7821 58.0341 52.6993C58.2578 52.1959 58.7442 51.8691 59.2122 51.6168C60.1067 51.1436 61.0831 50.8448 62.0892 50.7361C63.0487 50.6298 64.2285 50.586 65.0503 51.1013C65.5036 51.4168 65.8991 51.8081 66.2193 52.2581C66.5076 52.7054 66.7078 53.2036 66.8092 53.726C67.1597 55.0167 67.1592 56.3242 67.2002 57.6519C67.2298 58.6113 67.2607 59.5986 66.7404 60.4006C66.1871 61.2537 64.9594 61.7708 63.9625 61.8146C63.6838 61.8295 63.4042 61.8088 63.1307 61.7531C62.7088 61.6632 62.3436 61.464 61.9379 61.3352C61.2343 61.1516 60.5045 61.09 59.7801 61.1533C59.3825 61.1677 58.6199 61.2251 58.5055 60.8675C58.3577 60.4064 58.9138 60.086 59.3114 59.9564C59.9626 59.7255 60.6398 59.5757 61.3277 59.5105C62.1484 59.4776 62.9704 59.5228 63.7826 59.6454C63.9434 59.6446 64.0975 59.5803 64.2112 59.4666C64.3249 59.3529 64.3892 59.1988 64.39 59.038C64.3862 58.8781 64.321 58.7258 64.2079 58.6127C64.0948 58.4996 63.9425 58.4344 63.7826 58.4306C62.9371 58.3014 62.0806 58.259 61.2265 58.304C60.4509 58.3773 59.6869 58.5432 58.9507 58.7981C58.2484 59.0317 57.6415 59.4262 57.3869 60.1533C57.2545 60.4911 57.2427 60.8641 57.3533 61.2095C57.464 61.555 57.6904 61.8517 57.9943 62.0497C58.6217 62.4518 59.3779 62.3787 60.0858 62.3574C60.4792 62.3337 60.8741 62.3543 61.2629 62.4187C61.7291 62.5116 62.1421 62.752 62.6004 62.8742C63.3411 63.0534 64.1126 63.064 64.8579 62.905C65.6032 62.746 66.3033 62.4216 66.9064 61.9558C67.9807 61.1353 68.3768 59.9263 68.4216 58.6151C68.4436 57.968 68.4009 57.3201 68.3839 56.6734C68.387 55.7661 68.3014 54.8607 68.1283 53.97C67.9955 53.2553 67.7656 52.562 67.445 51.9096C67.2723 51.6285 67.076 51.3626 66.8581 51.115C66.6151 50.7957 66.3272 50.5133 66.0034 50.2765C64.9501 49.539 63.631 49.3864 62.3413 49.4957C60.8863 49.619 59.3271 50.0168 58.1148 50.8624C57.4851 51.3012 56.9 51.9231 56.7734 52.7099C56.6299 53.5957 57.1591 54.2395 57.9761 54.5154C58.7186 54.7659 59.037 53.5932 58.299 53.3439L58.2995 53.3444Z" fill="#211715"/>
<path d="M64.0285 52.4371C63.0479 52.3257 62.0557 52.3738 61.0904 52.5793C60.2108 52.7353 59.3501 52.9836 58.5226 53.3201C57.6553 53.6802 56.7812 54.1586 56.422 55.0783C56.2444 55.5288 56.2345 56.0282 56.3943 56.4855C56.554 56.9427 56.8726 57.3274 57.2921 57.5694C57.9646 57.972 58.576 56.9222 57.9054 56.5203C57.7992 56.4579 57.7079 56.3728 57.6382 56.2713C57.5684 56.1697 57.5217 56.0541 57.5014 55.9326C57.4812 55.811 57.4878 55.6865 57.5208 55.5678C57.5539 55.4491 57.6126 55.3391 57.6928 55.2456C58.0744 54.7414 58.818 54.4863 59.392 54.2838C60.0991 54.0373 60.8256 53.8505 61.5639 53.7253C62.2682 53.5795 62.9904 53.5406 63.7063 53.6099C63.8614 53.6473 64.025 53.6242 64.1638 53.5454C64.3025 53.4666 64.4061 53.3379 64.4534 53.1855C64.4951 53.0302 64.4739 52.8647 64.3945 52.7249C64.3152 52.5851 64.1839 52.4822 64.0292 52.4384L64.0285 52.4371Z" fill="#211715"/>
<path d="M63.9199 55.4523C62.9602 55.3783 61.9951 55.4191 61.0451 55.574C60.1598 55.6576 59.2845 55.8253 58.431 56.0749C57.5053 56.3867 56.7225 57.0482 56.4707 58.0219C56.2401 58.9135 56.561 59.8694 57.4412 60.2553C57.5814 60.3316 57.7455 60.3515 57.8999 60.311C58.0543 60.2705 58.1874 60.1727 58.2721 60.0374C58.3523 59.898 58.3743 59.7327 58.3335 59.5772C58.2928 59.4217 58.1924 59.2884 58.0542 59.2063C57.5334 58.9773 57.5083 58.5495 57.7308 58.0907C58.0621 57.4074 58.7866 57.2021 59.477 57.0607C60.9153 56.7656 62.4515 56.5072 63.9204 56.6671C64.0812 56.6661 64.2351 56.6018 64.3488 56.4881C64.4625 56.3744 64.5268 56.2205 64.5278 56.0597C64.5242 55.8997 64.4591 55.7473 64.3459 55.6342C64.2328 55.5211 64.0804 55.4559 63.9204 55.4523H63.9199Z" fill="#211715"/>
</g>
<defs>
<clipPath id="clip0_534_2400">
<rect width="75" height="75" fill="white"/>
</clipPath>
</defs>
</svg>
