<svg width="75" height="75" viewBox="0 0 75 75" fill="none" xmlns="http://www.w3.org/2000/svg">
<path d="M65.9766 39.1406L64.5703 17.9297L54.8438 23.9062C50.0391 23.0859 48.75 23.0859 45 21.2109C42.7734 20.1563 39.9609 20.8594 38.5547 21.6797C36.4453 19.4531 22.7344 22.7344 21.2109 23.4375C17.1094 22.2656 11.0156 17.4609 11.0156 17.4609L9.02344 41.4844L11.7188 42.1875C11.9531 43.0078 12.6563 45 12.6563 45C10.0781 48.2813 13.125 52.1484 16.0547 50.8594C14.7656 54.1406 18.1641 57.1875 20.8594 55.0781C20.5078 58.125 23.6719 60.3516 26.0156 58.2422C24.9609 61.875 29.0625 64.5703 31.5234 61.6406C33.2812 62.8125 34.9219 63.75 36.3281 64.2188C38.7891 65.2734 41.4844 62.9297 41.0156 60C43.8281 63.2813 48.0469 60.1172 47.1094 56.4844C50.2734 58.9453 54.1406 54.8438 52.1484 51.2109C55.6641 53.2031 58.7109 47.8125 55.3125 44.2969L65.9766 39.1406Z" fill="#FFE1BD"/>
<path d="M16.2891 42.5391C18.0469 43.3594 19.2188 46.0547 17.3438 48.3984L16.5234 49.3359C15.5859 50.5078 14.6484 50.8594 13.7109 50.8594C14.4141 51.2109 15.2344 51.2109 16.0547 50.8594C16.1719 50.5078 16.4063 50.0391 16.7578 49.6875L17.5781 48.75C18.0469 48.1641 18.6328 47.6953 19.1016 47.4609C20.0391 45 18.3984 42.6562 16.2891 42.5391Z" fill="#E6B796"/>
<path d="M29.7656 54.1407C31.6406 54.6094 33.0469 57.0704 31.6406 59.7657L30.9375 60.8204C30.2344 62.1094 29.2969 62.6954 28.3594 62.8126C29.6484 63.1641 31.0547 62.6954 31.9922 60.9376L32.6953 59.8829C34.3359 56.6016 32.1094 53.9063 29.7656 54.1407Z" fill="#E6B796"/>
<path d="M21.4453 53.2031L23.3203 50.2734C23.2031 48.6328 21.7969 47.2266 20.3906 47.1094C22.1484 47.9297 23.3203 50.625 21.4453 52.9688L20.625 53.9062C19.6875 55.0781 18.75 55.4297 17.6953 55.4297C18.6328 55.8984 19.6875 55.7812 20.7422 55.0781C20.8594 54.4922 21.0937 53.7891 21.4453 53.2031Z" fill="#E6B796"/>
<path d="M26.4844 47.9297C28.3594 48.5156 29.6484 51.0937 28.0078 53.6719L25.7812 57.1875C24.9609 58.4765 24.0234 58.9453 23.0859 58.9453C24.2578 59.2969 25.7812 58.9453 26.8359 57.3047L29.0625 53.789C30.9375 50.7422 28.8281 47.8125 26.4844 47.9297Z" fill="#E6B796"/>
<path d="M42.0703 50.8594C42.1875 50.8594 43.5937 50.625 44.0625 50.625C42.3047 48.8672 39.4922 50.2734 37.8516 49.3359C39.0234 51.3281 41.4844 50.8594 41.7187 50.8594L44.5313 54.4922C46.875 57.4219 45 60.8203 42.5391 61.1719C45.1172 61.9922 47.6953 59.2969 46.875 56.3672C46.7578 56.25 42.0703 50.8594 42.0703 50.8594Z" fill="#E6B796"/>
<path d="M44.8828 44.0625C44.8828 44.0625 46.6406 43.7109 48.1641 43.7109C46.4062 42.3047 43.7109 43.5938 41.9531 42.4219C42.6562 43.9453 44.1797 43.9453 44.6484 43.9453L50.0391 50.1562C52.5 52.9687 50.7422 56.3672 48.2813 56.9531C51.0938 57.7734 53.7891 54.1406 52.0313 50.9766C50.8594 50.625 44.8828 44.0625 44.8828 44.0625Z" fill="#E6B796"/>
<path d="M41.1328 57.5391C39.375 56.1328 36.9141 57.1875 35.8594 56.4844C36.4453 58.125 38.6719 57.7734 38.7891 57.7734C40.7812 60.8203 38.6719 63.9844 36.2109 64.2187C38.6719 65.2734 41.3672 62.9297 40.8984 60C40.7813 59.8828 39.1406 57.7734 39.1406 57.7734C39.375 57.6562 40.6641 57.5391 41.1328 57.5391Z" fill="#E6B796"/>
<path d="M64.6875 37.1484C64.6875 37.1484 62.6953 41.25 54.9609 43.4766C53.9062 42.1875 51.6797 39.6094 49.1016 37.3828C50.7422 37.0312 51.5625 35.7422 52.8516 35.5078C52.3828 35.0391 50.7422 35.2734 49.4531 35.7422C47.1094 36.5625 41.7187 32.8125 41.7187 32.8125L37.2656 33.3984C34.1016 36.4453 27.3047 38.0859 26.9531 33.3984C26.7188 30.1172 33.8672 27.8906 36.0937 25.7813C38.9062 23.0859 41.3672 19.6875 45.9375 22.0312C49.6875 23.9062 51.2109 23.7891 56.3672 24.7266C58.125 25.0781 59.2969 25.8984 60.5859 27.6563C59.5312 25.1953 58.0078 24.1406 56.1328 23.7891L64.3359 19.9219L64.4531 17.9297L54.7266 23.4375C50.2734 22.7344 48.6328 22.7344 45 20.9766C42.6563 19.8047 40.7812 20.1562 39.2578 21.0938C36.4453 19.4531 34.8047 19.8047 33.75 20.0391C30.4687 21.0938 25.1953 21.2109 20.5078 23.0859C21.3281 23.3203 22.1484 23.5547 22.7344 23.5547C27.3047 22.1484 32.1094 22.2656 34.3359 21.4453C35.0391 21.2109 36.4453 21.2109 37.9688 22.0312C37.0313 22.8516 36.2109 23.7891 35.2734 24.7266C33.0469 26.8359 26.25 29.8828 26.7187 33.75C26.9531 35.625 29.5312 40.5469 38.0859 35.0391L41.7187 34.5703C41.7187 34.5703 48.3984 37.7344 54.6094 45C57.0703 47.8125 55.5469 50.8594 53.0859 51.5625C56.25 52.1484 58.9453 47.6953 55.8984 44.6484L63.2812 40.6641L64.6875 37.1484Z" fill="#E6B796"/>
<path d="M62.5805 19.1016L66.4477 39.1406L63.2836 40.5469C61.643 36.2109 59.1821 25.7813 59.768 20.7422L62.5805 19.1016Z" fill="#3B946F"/>
<path d="M13.0078 44.5312C12.4219 43.125 12.0703 41.25 12.0703 41.25L9.14063 39.2578L8.90625 41.4844L11.4844 42.1875C11.8359 43.3594 12.1875 44.2969 12.6563 45L13.0078 44.5312Z" fill="#E6B796"/>
<path d="M7.14844 41.1328L13.4766 19.2188L16.4062 21.2109C16.875 24.4922 11.4844 39.4922 9.49219 41.7187L7.14844 41.1328Z" fill="#3B946F"/>
<path d="M62.458 18.9844C61.5205 19.5703 64.919 39.8438 66.3252 39.2578C70.7783 37.2656 72.7705 36.6797 72.7705 36.6797V12.5391C72.6533 12.5391 69.958 14.5313 62.458 18.9844Z" fill="#47B892"/>
<path d="M2.34375 10.5469V40.4297C2.34375 40.4297 4.45312 40.7812 7.14844 41.3672C8.67188 41.7188 14.1797 19.6875 13.8281 19.3359C9.84375 16.6406 2.34375 10.5469 2.34375 10.5469Z" fill="#47B892"/>
</svg>
