<svg width="75" height="75" viewBox="0 0 75 75" fill="none" xmlns="http://www.w3.org/2000/svg">
<path d="M64.3718 44.6486L59.3913 19.3947C59.3354 19.0137 59.2049 18.6474 59.0073 18.3169C58.8098 17.9864 58.549 17.698 58.2398 17.4684C57.9307 17.2387 57.5794 17.0723 57.2059 16.9785C56.8324 16.8848 56.4441 16.8656 56.0632 16.922C55.2958 17.0377 54.6057 17.4532 54.1444 18.0771C53.683 18.7011 53.488 19.4826 53.6022 20.2502L56.9655 42.8556L64.3718 44.6486Z" fill="#FFD578" stroke="#54596E" stroke-width="2.34375" stroke-linecap="round" stroke-linejoin="round"/>
<path d="M67.8874 38.7892L62.9069 13.5353C62.851 13.1543 62.7205 12.7881 62.523 12.4575C62.3254 12.127 62.0646 11.8387 61.7555 11.609C61.4464 11.3794 61.095 11.2129 60.7215 11.1192C60.348 11.0254 59.9597 11.0062 59.5788 11.0627C58.8115 11.1784 58.1214 11.5938 57.66 12.2177C57.1986 12.8417 57.0036 13.6232 57.1179 14.3908L60.4811 36.9963L67.8874 38.7892Z" fill="#FFD578" stroke="#54596E" stroke-width="2.34375" stroke-linecap="round" stroke-linejoin="round"/>
<path d="M10.9141 44.6486L15.8945 19.3947C15.9504 19.0137 16.0809 18.6474 16.2785 18.3169C16.4761 17.9864 16.7369 17.698 17.046 17.4684C17.3551 17.2387 17.7064 17.0723 18.0799 16.9785C18.4534 16.8848 18.8417 16.8656 19.2227 16.922C19.99 17.0377 20.6801 17.4532 21.1414 18.0771C21.6028 18.7011 21.7978 19.4826 21.6836 20.2502L18.3203 42.8556L10.9141 44.6486Z" fill="#FFD578" stroke="#54596E" stroke-width="2.34375" stroke-linecap="round" stroke-linejoin="round"/>
<path d="M7.39844 38.7892L12.3789 13.5353C12.4348 13.1543 12.5653 12.7881 12.7629 12.4575C12.9604 12.127 13.2212 11.8387 13.5304 11.609C13.8395 11.3794 14.1908 11.2129 14.5643 11.1192C14.9378 11.0254 15.3261 11.0062 15.707 11.0627C16.4744 11.1784 17.1644 11.5938 17.6258 12.2177C18.0872 12.8417 18.2822 13.6232 18.168 14.3908L14.8047 36.9963L7.39844 38.7892Z" fill="#FFD578" stroke="#54596E" stroke-width="2.34375" stroke-linecap="round" stroke-linejoin="round"/>
<path d="M56.5367 16.4062C54.4665 14.3367 51.6592 13.1741 48.732 13.1741C45.8048 13.1741 42.9974 14.3367 40.9273 16.4062L37.8687 19.4531L34.8101 16.4062C32.7072 14.5478 29.9754 13.5601 27.1702 13.6439C24.365 13.7278 21.6971 14.8769 19.7089 16.8576C17.7207 18.8383 16.5616 21.5019 16.4672 24.3068C16.3728 27.1116 17.3502 29.8471 19.2007 31.957L22.2711 35.0156L37.8687 50.625L53.4781 35.0156L56.5367 31.957C58.5884 29.8893 59.7397 27.0945 59.7397 24.1816C59.7397 21.2687 58.5884 18.4739 56.5367 16.4062Z" fill="#FF927D" stroke="#54596E" stroke-width="2.34375" stroke-linecap="round" stroke-linejoin="round"/>
<path d="M64.8672 6C64.09 5.99994 63.3442 6.30625 62.7913 6.85248C62.2385 7.39872 61.9233 8.14086 61.9141 8.91797L64.457 30.4688L52.8086 48.1875L48.8125 42.6328L50.6758 38.332C50.98 37.6249 51.1418 36.8648 51.1521 36.0951C51.1624 35.3254 51.021 34.5613 50.7358 33.8463C50.4507 33.1313 50.0275 32.4795 49.4904 31.9281C48.9533 31.3767 48.3128 30.9366 47.6055 30.6328L42.0391 43.5234L46.8789 64.793L60.3203 60.3516L66.6484 51.5625L70.1641 43.3594C72.0693 38.9172 72.4162 33.9612 71.1484 29.2969L67.7734 8.95312C67.7765 8.56839 67.7038 8.18681 67.5594 7.83018C67.415 7.47355 67.2018 7.14886 66.932 6.87463C66.6621 6.60041 66.3408 6.38202 65.9866 6.23195C65.6323 6.08188 65.2519 6.00307 64.8672 6Z" fill="#FFD578" stroke="#54596E" stroke-width="2.34375" stroke-linecap="round" stroke-linejoin="round"/>
<path d="M63.2812 59.7656H43.3594V69.1406H63.2812V59.7656Z" fill="white" stroke="#54596E" stroke-width="2.34375" stroke-linecap="round" stroke-linejoin="round"/>
<path d="M58.2656 66.7617C59.56 66.7617 60.6094 65.7124 60.6094 64.418C60.6094 63.1236 59.56 62.0742 58.2656 62.0742C56.9712 62.0742 55.9219 63.1236 55.9219 64.418C55.9219 65.7124 56.9712 66.7617 58.2656 66.7617Z" fill="#54596E"/>
<path d="M10.4219 6C11.199 5.99994 11.9449 6.30625 12.4977 6.85248C13.0505 7.39872 13.3657 8.14086 13.375 8.91797L10.5508 30.4688L22.4805 48.1875L26.4766 42.6328L24.6133 38.332C24.3091 37.6249 24.1472 36.8648 24.1369 36.0951C24.1266 35.3254 24.2681 34.5613 24.5532 33.8463C24.8383 33.1313 25.2616 32.4795 25.7987 31.9281C26.3358 31.3767 26.9763 30.9366 27.6836 30.6328L33.25 43.5234L28.3633 64.793L14.9687 60.3516L8.64061 51.5625L5.12499 43.3594C3.21976 38.9172 2.87284 33.9612 4.14061 29.2969L7.51561 8.95312C7.51252 8.56839 7.58525 8.18681 7.72963 7.83018C7.87401 7.47355 8.08723 7.14886 8.3571 6.87463C8.62697 6.60041 8.94822 6.38202 9.30249 6.23195C9.65676 6.08188 10.0371 6.00307 10.4219 6Z" fill="#FFD578" stroke="#54596E" stroke-width="2.34375" stroke-linecap="round" stroke-linejoin="round"/>
<path d="M12 69.1406H31.9219V59.7656H12V69.1406Z" fill="white" stroke="#54596E" stroke-width="2.34375" stroke-linecap="round" stroke-linejoin="round"/>
<path d="M17.0156 66.7617C18.31 66.7617 19.3594 65.7124 19.3594 64.418C19.3594 63.1236 18.31 62.0742 17.0156 62.0742C15.7212 62.0742 14.6719 63.1236 14.6719 64.418C14.6719 65.7124 15.7212 66.7617 17.0156 66.7617Z" fill="#54596E"/>
<path d="M31.4844 28.207C32.2841 28.9705 33.23 29.5644 34.2651 29.9531C35.3002 30.3418 36.4032 30.5172 37.5078 30.4688C38.6022 30.5155 39.6949 30.3425 40.7213 29.9601C41.7478 29.5777 42.6873 28.9936 43.4844 28.2422" stroke="#54596E" stroke-width="2.34375" stroke-linecap="round" stroke-linejoin="round"/>
<path d="M26.9531 24.6094C28.2475 24.6094 29.2969 23.56 29.2969 22.2656C29.2969 20.9712 28.2475 19.9219 26.9531 19.9219C25.6587 19.9219 24.6094 20.9712 24.6094 22.2656C24.6094 23.56 25.6587 24.6094 26.9531 24.6094Z" fill="#54596E"/>
<path d="M48.0469 24.6094C49.3413 24.6094 50.3906 23.56 50.3906 22.2656C50.3906 20.9712 49.3413 19.9219 48.0469 19.9219C46.7525 19.9219 45.7031 20.9712 45.7031 22.2656C45.7031 23.56 46.7525 24.6094 48.0469 24.6094Z" fill="#54596E"/>
</svg>
