<svg width="75" height="75" viewBox="0 0 75 75" fill="none" xmlns="http://www.w3.org/2000/svg">
<g clip-path="url(#clip0_534_2371)">
<path d="M37.2875 23.4825L22.2109 19.1551V26.6139C23.5063 27.1501 24.4184 28.4238 24.4184 29.9126C24.4184 30.9219 23.9961 31.8291 23.3232 32.4786L24.3304 37.9883C28.5827 39.4725 32.6974 40.6522 36.6004 41.3638C37.1356 41.4615 37.6829 41.4595 38.2179 41.3608C45.6581 39.9889 53.5728 37.3013 61.8421 33.6331C63.7132 32.8032 64.819 30.8502 64.5609 28.8199C64.0113 24.4975 62.4392 20.4991 60.1119 17.0529L37.7114 23.4824C37.5727 23.5222 37.4259 23.5222 37.2875 23.4825Z" fill="#64798A"/>
<path d="M17.2733 29.9125C17.2733 28.4236 18.1859 27.1498 19.4812 26.6139V18.3725L14.8796 17.0515C12.5598 20.4861 10.9912 24.4697 10.4364 28.775C10.1731 30.8195 11.2989 32.7874 13.1913 33.6041C14.7444 34.2744 16.2822 34.9109 17.8113 35.5275L18.3687 32.4786C17.6957 31.829 17.2733 30.9219 17.2733 29.9125Z" fill="#64798A"/>
<path d="M74.4431 12.0488L37.7113 22.5917C37.5727 22.6317 37.4261 22.6317 37.2875 22.5917L23.0131 18.4948L22.2109 18.8064V19.1552L37.2875 23.4826C37.4261 23.5223 37.5727 23.5223 37.7113 23.4826L60.1118 17.0532L74.4431 12.9397C74.9986 12.7803 75.1377 12.1515 74.8614 11.7561C74.7689 11.8889 74.6298 11.9952 74.4431 12.0488Z" fill="#2F4859"/>
<path d="M19.4841 17.8727C19.4841 17.7435 19.5066 17.6184 19.5414 17.498L0.555828 12.0488C0.369518 11.9952 0.230358 11.8889 0.13789 11.7561C-0.1386 12.1515 0.000713007 12.7803 0.555828 12.9397L14.8823 17.0517L19.4839 18.3726L19.4841 17.8727Z" fill="#2F4859"/>
<path d="M0.555861 12.0488L19.5413 17.498C19.6567 17.0952 19.9498 16.7583 20.3535 16.6025L33.9863 11.306C33.9903 10.0533 35.5615 9.03778 37.4998 9.03778C39.4407 9.03778 41.0141 10.0557 41.0141 11.3107C41.0141 12.5661 39.4407 13.5835 37.4998 13.5835C37.0109 13.5835 36.5458 13.5187 36.123 13.4019L23.0134 18.4949L37.2879 22.5917C37.4264 22.6317 37.5731 22.6317 37.7116 22.5917L74.4435 12.0488C74.6301 11.9952 74.7691 11.8889 74.8617 11.7561C75.1381 11.3609 74.9989 10.732 74.4435 10.5728L37.7118 0.0297546C37.5732 -0.00991821 37.4266 -0.00991821 37.288 0.0297546L0.555861 10.5727C0.000594191 10.732 -0.138566 11.3608 0.137923 11.756C0.230544 11.8889 0.369552 11.9952 0.555861 12.0488Z" fill="#3A556A"/>
<path d="M33.986 11.3108L33.9868 11.306L20.354 16.6025C19.9502 16.7583 19.6571 17.0952 19.5417 17.498C19.5071 17.6184 19.4844 17.7436 19.4844 17.8728V18.3725V26.614C19.9049 26.44 20.3645 26.3414 20.8477 26.3414C21.3313 26.3414 21.7912 26.4399 22.2117 26.614V19.1552V18.8063L23.0139 18.4948L36.1235 13.4018C34.8672 13.0556 33.986 12.2499 33.986 11.3108Z" fill="#E56353"/>
<path d="M36.1218 13.4018C36.5448 13.5186 37.0097 13.5834 37.4986 13.5834C39.4395 13.5834 41.0129 12.5659 41.0129 11.3106C41.0129 10.0556 39.4395 9.03766 37.4986 9.03766C35.5603 9.03766 33.9891 10.0531 33.9851 11.3059L33.9844 11.3106C33.9842 12.2499 34.8654 13.0556 36.1218 13.4018Z" fill="#2F4859"/>
<path d="M20.8443 33.4842C19.8812 33.4842 19.011 33.0986 18.3684 32.4788L17.811 35.5276L15.8281 46.3728H25.8608L24.3276 37.9886L23.3203 32.4789C22.6779 33.0984 21.8076 33.4842 20.8443 33.4842Z" fill="#E56353"/>
<path d="M19.4814 26.614C18.1861 27.1498 17.2734 28.4236 17.2734 29.9126C17.2734 30.922 17.6958 31.8291 18.3687 32.4787C19.0113 33.0985 19.8815 33.4841 20.8446 33.4841C21.8079 33.4841 22.6783 33.0985 23.3206 32.4787C23.9937 31.8291 24.4159 30.922 24.4159 29.9126C24.4159 28.4238 23.5038 27.1503 22.2084 26.614C21.7879 26.4399 21.328 26.3414 20.8445 26.3414C20.3615 26.3414 19.9019 26.4399 19.4814 26.614Z" fill="#D15241"/>
<path d="M30.0337 60.4599L30.9024 59.5913L30.2882 58.5275L31.3519 57.9133L31.0341 56.7267L32.2205 56.4088V55.1805H33.4489L33.7201 54.1687V51.1757H0V60.9668H30.5408L30.0337 60.4599Z" fill="#EBF0F3"/>
<path d="M41.2812 54.1682L41.5527 55.1805H42.781V56.4088L43.9674 56.7267L43.6496 57.9133L44.7134 58.5275L44.0992 59.5913L44.9678 60.4599L44.4609 60.9668H75.0016V51.1757H41.2812V54.1682Z" fill="#EBF0F3"/>
<path d="M44.0995 61.3286L44.7136 62.3924L43.6498 63.0067L43.9676 64.1931L42.7812 64.511V64.7517H75.0019V60.9668H44.4611L44.0995 61.3286Z" fill="#E1E6E9"/>
<path d="M31.0341 64.1931L31.3519 63.0067L30.2882 62.3924L30.9024 61.3286L30.5408 60.9668H0V64.7517H32.2205V64.511L31.0341 64.1931Z" fill="#E1E6E9"/>
<path d="M40.0452 66.608L39.6973 67.2106L39.431 67.6717L38.3672 67.0576L37.7947 67.6301L37.4985 67.9259L37.2025 67.6301L36.63 67.0576L35.5663 67.6717L35.2999 67.2108L34.952 66.608L33.7654 66.9259L33.7188 66.7513V74.9999L37.4987 72.2941L41.2783 74.9999V66.7516L41.2319 66.9259L40.0452 66.608Z" fill="#E56353"/>
<path d="M33.7654 53.9941L34.952 54.3116L35.5663 53.2481L36.63 53.8624L37.4985 52.9937L38.3672 53.8624L39.431 53.2481L40.0452 54.3116L41.2319 53.9941L41.2783 54.1682V51.1757H33.7188V54.1687L33.7654 53.9941Z" fill="#E56353"/>
<path d="M43.9631 64.1931L43.6453 63.0067L44.7093 62.3924L44.095 61.3286L44.4568 60.9668L44.9637 60.4599L44.0951 59.5914L44.7094 58.5275L43.6454 57.9134L43.9633 56.7267L42.7769 56.4088V55.1805H41.5486L41.2771 54.1682L41.2307 53.9941L40.0441 54.3117L39.4299 53.2481L38.3659 53.8625L37.4974 52.9938L36.6288 53.8625L35.5652 53.2481L34.9508 54.3117L33.7643 53.9941L33.7175 54.1687L33.4463 55.1807H32.2178V56.409L31.0315 56.7268L31.3493 57.9135L30.2856 58.5277L30.8998 59.5915L30.0312 60.4601L30.5383 60.967L30.8998 61.3287L30.2856 62.3926L31.3493 63.0069L31.0315 64.1933L32.2178 64.5113V64.7519V65.7396H33.4463L33.6071 66.34L33.7175 66.7516L33.7642 66.9261L34.9507 66.6083L35.2986 67.211L35.565 67.672L36.6287 67.0578L37.2012 67.6303L37.4974 67.9262L37.7935 67.6303L38.3661 67.0578L39.4301 67.672L39.6963 67.2108L40.0442 66.6083L41.2309 66.9261L41.2773 66.7519L41.3878 66.34L41.5486 65.7396H42.7769V64.7519V64.5113L43.9631 64.1931ZM37.4975 65.8159C34.5442 65.8159 32.1415 63.4132 32.1415 60.4599C32.1415 57.5067 34.5442 55.1039 37.4975 55.1039C40.4509 55.1039 42.8532 57.5067 42.8532 60.4599C42.8532 63.4134 40.4509 65.8159 37.4975 65.8159Z" fill="#FCD462"/>
<path d="M37.4968 65.0203C40.0149 65.0203 42.0562 62.979 42.0562 60.4609C42.0562 57.9429 40.0149 55.9016 37.4968 55.9016C34.9788 55.9016 32.9375 57.9429 32.9375 60.4609C32.9375 62.979 34.9788 65.0203 37.4968 65.0203Z" fill="#FCD462"/>
<path d="M42.8523 60.4599C42.8523 57.5067 40.45 55.1039 37.4966 55.1039C34.5433 55.1039 32.1406 57.5067 32.1406 60.4599C32.1406 63.4132 34.5433 65.8159 37.4966 65.8159C40.45 65.8159 42.8523 63.4134 42.8523 60.4599ZM32.9371 60.4599C32.9371 57.9457 34.9824 55.9004 37.4966 55.9004C40.0108 55.9004 42.0559 57.9457 42.0559 60.4599C42.0559 62.9739 40.011 65.0193 37.4966 65.0193C34.9824 65.0193 32.9371 62.9739 32.9371 60.4599Z" fill="#E56353"/>
</g>
<defs>
<clipPath id="clip0_534_2371">
<rect width="75" height="75" fill="white"/>
</clipPath>
</defs>
</svg>
