<svg width="75" height="75" viewBox="0 0 75 75" fill="none" xmlns="http://www.w3.org/2000/svg">
<path d="M16.1197 13.0071C16.3463 13.9134 16.3463 14.2533 17.026 14.9897C17.3659 15.3862 17.7624 15.7261 18.782 16.0659C20.2548 16.5191 20.7646 15.6694 20.9911 15.3862L21.5576 15.4995C21.7842 15.6128 21.9541 15.7261 21.9541 15.7261L22.0107 15.4429L21.6142 15.3862C21.331 15.2729 21.1044 15.1596 21.1044 15.1596C21.1044 15.1596 21.4443 14.0267 20.6513 13.1204C18.7254 10.9679 15.6099 12.2141 15.5533 12.3274L15.9498 12.554L16.1197 13.0071ZM41.3265 20.9374C41.2132 20.994 41.4965 21.2773 41.3265 21.7304C41.2699 21.957 40.9867 22.2402 40.8168 22.4102C39.6272 23.4864 39.0608 23.8263 38.551 25.5256C38.2677 26.4319 38.0412 27.2816 38.4376 29.0942C39.0041 31.6998 40.7601 31.8131 41.3832 31.8698C41.4965 31.8698 41.6664 32.3795 41.723 32.7761C41.7796 33.2292 41.723 33.6257 41.723 33.6257C41.723 33.6257 41.9496 33.909 42.1761 33.4558C42.1761 33.3992 42.0062 33.0027 41.9495 32.7761C41.8929 32.2663 41.8929 31.8131 41.8929 31.8131C41.8929 31.8131 43.8755 31.3599 44.5552 29.3773C46.1979 24.6192 41.6097 20.824 41.3265 20.9373L41.3265 20.9374ZM33.7928 12.554C33.9062 12.554 34.0761 13.0637 34.1327 13.4603C34.1893 13.9134 34.1327 14.3099 34.1327 14.3099C34.1327 14.3099 34.3593 14.5932 34.5858 14.14C34.5858 14.0834 34.4159 13.6869 34.3592 13.4603C34.3026 12.9505 34.3026 12.4973 34.3026 12.4973C34.3026 12.4973 36.2852 12.1007 37.0216 10.0615C38.6076 5.24673 34.0194 1.45154 33.7928 1.56485C33.6795 1.62147 33.9628 1.90469 33.7928 2.35784C33.7362 2.58446 33.453 2.86761 33.2831 3.0376C32.0936 4.11383 31.5271 4.45374 31.0173 6.15303C30.734 7.05933 30.5075 7.90902 30.904 9.72161C31.4137 12.3839 33.1698 12.4406 33.7928 12.5538V12.554ZM63.5879 26.4886C63.5313 26.432 63.3613 26.7718 62.9648 26.8284L62.2285 26.7151C60.869 26.262 60.3592 25.9787 58.8298 26.3186C58.0368 26.4885 57.2437 26.7151 56.0542 27.7347C54.2416 29.2641 54.978 30.6802 55.1479 31.1901C55.2045 31.3034 54.8647 31.6432 54.5815 31.8131C54.2416 32.0964 53.9584 32.153 53.9584 32.153C53.9584 32.153 53.8451 32.4928 54.2416 32.4362L54.6948 31.9831C55.0346 31.6998 55.4312 31.5299 55.4312 31.5299C55.4312 31.5299 56.6207 32.8894 58.4333 32.5495C62.8516 31.7565 63.8146 26.6585 63.588 26.4885L63.5879 26.4886ZM36.2852 12.8372C36.002 13.4036 35.7754 14.0267 35.8321 15.2729C35.9454 17.1422 37.1915 17.3688 37.588 17.4821C37.6447 17.4821 37.7013 17.8786 37.7013 18.1618C37.7013 18.5017 37.588 18.7283 37.588 18.7283C37.588 18.7283 37.7013 18.9549 37.9279 18.6717L37.8146 18.1619C37.8146 17.8221 37.8712 17.4821 37.8712 17.4821C37.8712 17.4821 39.2873 17.3688 39.967 16.066C41.5531 12.8939 38.7775 9.89176 38.6076 9.89176C38.551 9.89176 38.6642 10.1184 38.551 10.4582L38.0978 10.8547C37.1915 11.5345 36.795 11.761 36.2852 12.8373V12.8372ZM46.9344 16.5758L46.6512 17.1422C46.7645 17.5388 46.991 17.3121 46.991 17.3121C46.991 17.3121 46.991 16.9723 47.1043 16.5758C47.2176 16.2359 47.3876 15.8394 47.5009 15.8394C48.0106 15.8394 49.5967 16.0093 50.4464 13.8002C51.0128 12.2708 50.8995 11.4777 50.7862 10.6847C50.5596 9.15538 50.1064 8.75884 49.2001 7.68255L48.8603 7.05948C48.8037 6.60633 49.0869 6.37972 48.9736 6.3231C48.747 6.2098 44.2721 8.87208 45.0651 13.2337C45.405 15.103 47.1043 15.7261 47.1043 15.7261C47.1043 15.7261 47.0477 16.1226 46.9344 16.5758ZM27.9584 40.5364C27.6186 40.3665 27.2787 40.0833 27.2787 39.97C27.392 39.4602 27.9018 37.9308 25.8625 36.6846C24.5031 35.8349 23.71 35.7216 22.917 35.665C21.3877 35.5516 20.9344 35.8916 19.6316 36.5713L18.8952 36.7979C18.4421 36.7412 18.2722 36.458 18.2155 36.5146C18.0456 36.6846 19.7448 41.6127 24.1632 41.7826C26.0325 41.8392 26.9954 40.3098 26.9954 40.3098C26.9954 40.3098 27.3919 40.4231 27.7884 40.6497L28.2981 41.0462C28.7513 41.0462 28.5814 40.763 28.5814 40.763C28.5814 40.763 28.2981 40.7064 27.9583 40.5364L27.9584 40.5364ZM57.4137 24.7326C58.4899 23.8829 58.8298 23.3165 59.113 22.6368C59.6228 21.4472 59.5096 20.9941 59.3397 19.7479V19.1248C59.5096 18.785 59.7928 18.7283 59.7362 18.6717C59.6229 18.5017 55.2046 18.3884 53.7885 21.9004C53.1654 23.3732 54.1283 24.6194 54.1283 24.6194C54.1283 24.6194 53.9017 24.9026 53.6186 25.1291L53.1654 25.4124C53.0521 25.7522 53.3353 25.6956 53.3353 25.6956C53.3353 25.6956 53.5053 25.469 53.7319 25.2424L54.3549 24.9026C54.7515 25.0725 55.8277 25.9222 57.4137 24.7327L57.4137 24.7326ZM36.4551 33.6824C36.4551 33.6824 36.5684 33.909 36.6817 34.2489L36.7384 34.702L37.0216 34.6454C37.0216 34.6454 36.9083 34.4755 36.795 34.1923L36.7384 33.6258C37.0216 33.4559 37.9846 32.9461 37.588 31.36C37.3048 30.2838 36.965 29.8872 36.5684 29.4907C35.8321 28.7543 35.4922 28.6977 34.5292 28.4145L34.0761 28.1879L33.8495 27.7347C33.6795 27.7347 32.2068 30.9635 34.3592 33.0594C35.2655 33.9657 36.4551 33.6824 36.4551 33.6824ZM15.44 22.1836C16.6295 22.6933 17.5925 21.9569 17.5925 21.9569L17.989 22.3535L18.2156 22.75C18.4989 22.8633 18.4422 22.6367 18.4422 22.6367L18.0457 22.2969L17.7625 21.7871C17.9324 21.5039 18.6122 20.6542 17.7059 19.408C17.0828 18.5584 16.5729 18.2751 16.0632 18.0486C15.1002 17.5954 14.7604 17.7087 13.7974 17.822L13.2876 17.7654C13.1177 17.6521 13.061 17.4255 13.0044 17.4255C12.8344 17.5388 12.7211 21.0508 15.4401 22.1837L15.44 22.1836ZM19.0652 34.0223C19.0652 34.0223 19.4051 34.1356 19.6883 34.3055L20.0848 34.6453C20.4247 34.6453 20.3115 34.4187 20.3115 34.4187C20.3115 34.4187 20.0282 34.3621 19.745 34.2488C19.4618 34.1355 19.1785 33.909 19.2352 33.7957C19.2918 33.3991 19.6884 32.153 18.1023 31.19C17.0261 30.5102 16.3463 30.4536 15.7233 30.397C14.4771 30.3404 14.1372 30.6236 13.061 31.1334L12.4945 31.3033C12.1547 31.3033 11.9848 31.0201 11.9281 31.0767C11.8148 31.2466 13.1743 35.2117 16.7995 35.2684C18.3289 35.2118 19.0653 34.0222 19.0653 34.0222L19.0652 34.0223ZM27.3353 14.3099C26.429 13.7435 26.0891 13.8002 25.1262 13.8002L24.6164 13.6869C24.3898 13.517 24.3898 13.2903 24.2766 13.2903C24.1066 13.347 23.5402 16.8023 26.1458 18.3317C27.2221 18.9548 28.2984 18.3884 28.2984 18.3884C28.2984 18.3884 28.525 18.615 28.6382 18.8415L28.8081 19.238C29.0914 19.3514 29.0347 19.1247 29.0347 19.1247L28.7515 18.7849L28.5249 18.2184C28.7515 17.9352 29.5445 17.1988 28.7515 15.8394C28.2417 14.8764 27.7885 14.5932 27.3354 14.31L27.3353 14.3099ZM37.4747 36.7979L37.0782 36.458C36.9649 36.1748 37.0782 36.0049 36.9649 36.0049C36.795 36.0049 34.5858 38.7238 36.1152 41.2728C36.7383 42.349 37.9845 42.349 37.9845 42.349L38.0978 42.9155L38.0412 43.3686C38.2111 43.5953 38.3244 43.4253 38.3244 43.4253L38.2111 42.9721C38.2111 42.7455 38.2111 42.4057 38.2677 42.4057C38.6076 42.2923 39.6272 42.0091 39.6272 40.4231C39.6272 39.3468 39.4006 38.837 39.1174 38.3838C38.6643 37.4209 38.3244 37.2509 37.4747 36.7978V36.7979ZM41.6665 19.2947C41.6665 19.2947 41.6098 19.5779 41.4965 19.8611L41.2133 20.201C41.2699 20.4842 41.4399 20.3709 41.4399 20.3709C41.4399 20.3709 41.4399 20.1443 41.5532 19.9177L41.8931 19.4646C42.2329 19.5212 43.2525 19.7478 44.0456 18.3317C44.5554 17.3687 44.5553 16.8589 44.5553 16.2925C44.5553 15.2729 44.2721 14.933 43.7624 14.1399L43.5924 13.6868C43.5924 13.4036 43.7624 13.2903 43.7057 13.2337C43.5924 13.1203 40.3637 14.5365 40.5336 17.5387C40.5902 18.7282 41.6665 19.2947 41.6665 19.2947ZM47.4442 25.9787C47.4442 25.9787 47.3876 26.262 47.2176 26.5452L46.9343 26.885C46.9343 27.1683 47.1609 27.055 47.1609 27.055C47.1609 27.055 47.2176 26.8284 47.3309 26.6018L47.6707 26.1487C48.0106 26.2053 49.0302 26.4885 49.8232 25.0724C50.333 24.1095 50.3897 23.5997 50.3897 23.0332C50.3897 22.0136 50.1631 21.6738 49.6533 20.8807L49.4834 20.4276C49.4834 20.1443 49.71 20.031 49.6533 19.9744C49.54 19.8611 46.2546 21.1639 46.3113 24.1661C46.4246 25.3557 47.4442 25.9787 47.4442 25.9787ZM27.7318 22.6367L27.5052 22.1836C27.3353 22.1836 26.0891 25.469 28.3549 27.4515C29.3179 28.3012 30.4507 27.9046 30.4507 27.9046C30.4507 27.9046 30.6207 28.1313 30.734 28.4144L30.8473 28.8676L31.1305 28.8109C31.1305 28.8109 30.9606 28.641 30.9039 28.3578L30.7906 27.7913C31.0738 27.5647 31.9801 26.9983 31.4703 25.4689C31.1305 24.4493 30.734 24.0528 30.3374 23.6563C29.601 22.9199 29.2045 22.9199 28.2416 22.6933L27.7318 22.6367ZM19.5184 30.1705C19.9149 31.0202 20.3681 31.8131 21.8974 32.8328C24.1066 34.3621 25.466 33.1726 25.9192 32.8328C26.0325 32.7761 26.4857 33.0027 26.7689 33.2859C27.1088 33.5691 27.3354 33.909 27.3354 33.909C27.3354 33.909 27.7319 33.9656 27.562 33.5124L26.9389 33.1726C26.5424 32.8894 26.2025 32.4928 26.2025 32.4928C26.2025 32.4928 27.3354 30.7935 26.4291 28.8676C24.3333 24.2794 18.4422 24.7325 18.2723 24.9591C18.2157 25.0724 18.6122 25.129 18.8388 25.5255C18.9521 25.7521 18.9521 26.092 18.9521 26.3752C18.8388 27.9613 18.7255 28.5843 19.5185 30.1704L19.5184 30.1705ZM24.9563 20.5409C23.88 17.3121 19.8016 17.1988 19.6883 17.3688C19.6317 17.4254 19.9149 17.4821 20.0281 17.8219V18.3884C19.8582 19.4646 19.6883 19.8611 20.0848 20.994C20.3114 21.5605 20.5379 22.1269 21.5009 22.9766C22.8604 24.1661 23.88 23.4864 24.2199 23.2598L24.7863 23.5997L25.1262 24.0528C25.1262 24.0528 25.4094 24.1095 25.2961 23.7696L24.8996 23.4864C24.673 23.2598 24.4464 22.9766 24.4464 22.9766C24.4464 22.9766 25.4094 21.9004 24.9562 20.5409H24.9563ZM55.7709 12.4973C55.7143 12.4973 55.7143 12.724 55.4877 12.9505L54.9212 13.1204C53.845 13.2903 53.3919 13.2903 52.4855 14.0267C51.9757 14.4232 51.5225 14.8197 51.0694 16.0093C50.3896 17.7087 51.3526 18.3884 51.6924 18.6716C51.7491 18.7282 51.6358 19.0681 51.5225 19.2947C51.4092 19.5779 51.1827 19.7478 51.1827 19.7478C51.1827 19.7478 51.1827 20.031 51.4659 19.8044L51.5792 19.3513C51.7491 19.0114 51.919 18.7848 51.919 18.7848C51.919 18.7848 53.2785 19.3513 54.4114 18.445C57.2436 16.4058 55.9975 12.554 55.7709 12.4973L55.7709 12.4973ZM23.7667 9.32523C23.9366 9.9483 24.1066 10.5148 24.9563 11.4211C26.2025 12.7239 27.2787 12.1008 27.6185 11.9875L28.1283 12.384L28.4115 12.8372C28.4115 12.8372 28.6381 12.9505 28.5814 12.6106L28.1849 12.2707C27.9583 11.9875 27.7884 11.7043 27.7884 11.7043C27.7884 11.7043 28.8646 10.6847 28.5248 9.26854C27.7318 5.9265 23.71 5.47335 23.5967 5.64327C23.54 5.69989 23.8233 5.81319 23.8799 6.09642L23.8233 6.66287C23.6533 7.79578 23.4834 8.19224 23.7667 9.32515L23.7667 9.32523ZM15.6099 28.4711C15.6665 28.4145 16.0064 28.5277 16.233 28.641C16.5162 28.7543 16.6861 28.9809 16.6861 28.9809C16.6861 28.9809 16.9693 28.9809 16.7427 28.6976L16.2896 28.5277L15.7231 28.1879C15.7231 28.1879 16.2896 26.8284 15.4399 25.6955C13.4007 22.9199 9.54888 24.0528 9.49219 24.2794C9.49219 24.336 9.7188 24.336 9.94534 24.5626L10.1153 25.1291C10.2286 26.2053 10.2286 26.6584 10.9649 27.5648C11.3615 28.0746 11.7579 28.5278 12.8908 28.9809C14.5902 29.7173 15.3266 28.7543 15.6098 28.4712L15.6099 28.4711ZM36.7384 22.3535C36.625 21.1073 36.2852 20.5975 35.9454 20.0877C35.2656 19.1247 34.8691 18.9547 33.8495 18.5016L33.3964 18.1618C33.2265 17.8785 33.3398 17.652 33.2265 17.652C33.0565 17.652 30.7341 20.994 32.7733 23.7696C33.623 24.9591 35.0958 24.7892 35.0958 24.7892C35.0958 24.7892 35.2091 25.0724 35.2657 25.4123V25.9221C35.4923 26.2053 35.5489 25.9221 35.5489 25.9221C35.5489 25.9221 35.4356 25.6954 35.379 25.4123C35.3224 25.1291 35.3224 24.7892 35.4356 24.7325C35.7754 24.5626 36.9083 24.1661 36.7384 22.3535H36.7384ZM29.7144 30.7935C29.6578 30.8502 29.8844 31.0202 29.8277 31.36L29.6011 31.8698C28.9781 32.7761 28.6381 33.0593 28.5815 34.2488C28.5249 34.8719 28.5249 35.495 29.0347 36.6279C29.771 38.2705 30.9606 38.044 31.3571 38.044C31.4137 38.044 31.6403 38.3272 31.6969 38.6105C31.8103 38.8937 31.8103 39.1769 31.8103 39.1769C31.8103 39.1769 32.0369 39.3468 32.0935 39.007L31.8669 38.5538C31.7536 38.214 31.6969 37.9308 31.6969 37.9308C31.6969 37.9308 32.9998 37.3643 33.1697 35.8916C33.5662 32.4362 29.8843 30.6802 29.7144 30.7935H29.7144ZM50.8995 27.1117L50.6163 27.6214L50.1065 27.848C49.0303 28.0746 48.6338 28.1313 47.7275 28.9809C47.2743 29.4341 46.8778 29.8872 46.4813 31.0202C45.9715 32.7761 46.991 33.3992 47.3309 33.6258C47.3876 33.6824 47.3309 34.0223 47.2176 34.3056C47.1043 34.5888 46.9344 34.8153 46.9344 34.8153C46.9344 34.8153 46.991 35.0986 47.2176 34.872L47.3309 34.3622C47.4442 34.0224 47.6142 33.7391 47.6142 33.7391C47.6142 33.7391 49.0303 34.1923 50.0499 33.1727C52.6556 30.8502 51.1261 27.1117 50.8995 27.1117ZM42.1762 9.77838C42.2328 9.77838 42.2895 10.1749 42.2895 10.4581C42.2895 10.7414 42.1762 11.0246 42.1762 11.0246C42.1762 11.0246 42.2895 11.2512 42.4594 10.968L42.4028 10.4582C42.4028 10.1184 42.5161 9.77845 42.5161 9.77845C42.5161 9.77845 43.9889 9.77845 44.7253 8.53223C46.4813 5.58673 43.9323 2.47122 43.7057 2.47122C43.649 2.47122 43.7623 2.69783 43.5924 3.03768L43.1392 3.37752C42.1762 3.94398 41.7798 4.1139 41.2133 5.1335C40.9301 5.69996 40.6469 6.20972 40.6469 7.45594C40.6469 9.38184 41.7798 9.66507 42.1762 9.77838Z" fill="#148D13"/>
<path d="M47.6093 45.4646C36.2237 59.5692 42.228 70.5016 44.2106 71.2946C44.4373 71.4079 35.2041 71.6344 35.3174 71.5778C39.6225 68.9722 30.6159 48.2402 28.9166 44.6716C28.2368 43.2554 29.5963 44.8415 32.0887 43.8786C34.0713 43.0856 33.5048 40.8764 34.6944 41.3862C35.6007 41.7828 34.4111 45.0681 36.2804 48.0703C36.6203 48.6368 41.5484 48.7501 41.6617 38.6106C41.7183 34.0225 43.7575 39.1204 45.7401 39.9135C47.7227 40.7065 48.3458 40.4232 52.4242 34.8154C52.8207 34.1357 55.8795 35.212 47.6094 45.4646H47.6093Z" fill="#824522"/>
</svg>
