<svg width="300" height="300" viewBox="0 0 300 300" fill="none" xmlns="http://www.w3.org/2000/svg">
<path d="M164.112 124.604C161.916 126.922 158.812 128.143 155.618 127.945C154.513 127.875 128.256 126.07 101.399 111.598C76.0197 97.9223 45.3934 70.1712 43.6151 15.6299C43.5184 12.6563 44.6563 9.77462 46.7598 7.66994C49.9678 4.45959 53.7348 4.45959 55.342 4.45959H55.3426C56.4805 4.45959 83.2255 4.65178 110.783 21.1758C125.089 29.7539 136.983 41.1585 146.135 55.0722C157.19 71.8815 164.206 92.3606 166.987 115.942C167.361 119.113 166.308 122.286 164.112 124.604Z" fill="#6DC82A"/>
<path d="M146.47 55.6042C141.957 63.9333 138.151 73.3136 135.42 83.8815C132.964 91.2163 129.213 104.104 126.117 121.934C142.445 127.044 154.863 127.898 155.616 127.945C158.81 128.144 161.914 126.923 164.11 124.604C166.305 122.286 167.359 119.113 166.984 115.941C164.232 92.6061 157.327 72.314 146.47 55.6042Z" fill="#5EAC24"/>
<path d="M269.238 7.82047C267.042 5.5025 263.938 4.28141 260.744 4.47946C259.64 4.54977 233.382 6.35445 206.525 20.8265C185.887 31.9476 161.782 52.3751 152.538 88.9457C147.489 103.814 136.366 144.136 138.967 204.849C139.192 210.101 143.521 214.208 148.728 214.207C148.868 214.207 149.011 214.204 149.153 214.198C154.548 213.967 158.734 209.407 158.503 204.011C157.155 172.558 159.745 146.846 163.082 127.873C170.592 127.442 192.967 125.005 215.909 111.249C230.215 102.671 242.108 91.266 251.26 77.3524C262.316 60.543 269.332 40.064 272.113 16.483C272.488 13.313 271.434 10.139 269.238 7.82047Z" fill="#91DC5A"/>
<path d="M258.646 237.622C254.149 237.622 249.949 238.889 246.379 241.083C241.106 223.833 225.065 211.285 206.089 211.285C203.983 211.285 201.915 211.444 199.893 211.742C191.291 192.063 171.664 178.306 148.814 178.306C125.964 178.306 106.336 192.063 97.7342 211.742C95.7115 211.444 93.6432 211.285 91.5385 211.285C72.5624 211.285 56.5206 223.833 51.2484 241.083C47.6783 238.889 43.4789 237.622 38.9812 237.622C26.0215 237.622 15.5156 248.128 15.5156 261.088C15.5156 274.048 26.0215 284.554 38.9812 284.554C45.9263 284.554 52.1636 281.535 56.4597 276.74C64.0106 288.071 76.9001 295.541 91.5379 295.541C103.393 295.541 114.096 290.637 121.751 282.756C129.766 287.218 138.989 289.769 148.813 289.769C158.637 289.769 167.861 287.218 175.875 282.756C183.531 290.637 194.234 295.541 206.088 295.541C220.726 295.541 233.616 288.072 241.167 276.74C245.463 281.535 251.701 284.554 258.645 284.554C271.605 284.554 282.111 274.048 282.111 261.088C282.112 248.129 271.606 237.622 258.646 237.622Z" fill="#CC7400"/>
<path d="M179.449 201.12C184.991 201.12 190.339 201.941 195.392 203.446C185.428 188.307 168.293 178.306 148.814 178.306C125.964 178.306 106.336 192.063 97.7342 211.742C95.7116 211.444 93.6432 211.285 91.5385 211.285C72.5624 211.285 56.5206 223.833 51.2484 241.083C47.6783 238.889 43.4789 237.622 38.9812 237.622C26.0215 237.622 15.5156 248.128 15.5156 261.088C15.5156 274.048 26.0215 284.554 38.9812 284.554C45.9263 284.554 52.1636 281.535 56.4597 276.74C64.0106 288.071 76.9001 295.541 91.5379 295.541C103.393 295.541 114.096 290.637 121.751 282.756C125.246 284.702 128.972 286.284 132.876 287.449C127.093 278.665 123.718 268.154 123.718 256.851C123.719 226.072 148.67 201.12 179.449 201.12Z" fill="#AA6100"/>
<path d="M170.978 253.917C176.558 253.917 181.082 249.393 181.082 243.813C181.082 238.233 176.558 233.71 170.978 233.71C165.398 233.71 160.875 238.233 160.875 243.813C160.875 249.393 165.398 253.917 170.978 253.917Z" fill="#AA6100"/>
<path d="M211.713 277.709C217.293 277.709 221.816 273.185 221.816 267.605C221.816 262.025 217.293 257.502 211.713 257.502C206.133 257.502 201.609 262.025 201.609 267.605C201.609 273.185 206.133 277.709 211.713 277.709Z" fill="#AA6100"/>
<path d="M205.497 236.922C207.644 236.922 209.385 235.182 209.385 233.034C209.385 230.887 207.644 229.147 205.497 229.147C203.35 229.147 201.609 230.887 201.609 233.034C201.609 235.182 203.35 236.922 205.497 236.922Z" fill="#AA6100"/>
<path d="M148.817 275.381C150.964 275.381 152.705 273.641 152.705 271.494C152.705 269.347 150.964 267.606 148.817 267.606C146.67 267.606 144.93 269.347 144.93 271.494C144.93 273.641 146.67 275.381 148.817 275.381Z" fill="#AA6100"/>
<path d="M160.872 222.393C163.019 222.393 164.76 220.652 164.76 218.505C164.76 216.358 163.019 214.617 160.872 214.617C158.725 214.617 156.984 216.358 156.984 218.505C156.984 220.652 158.725 222.393 160.872 222.393Z" fill="#AA6100"/>
<path d="M244.52 257.807C246.668 257.807 248.408 256.067 248.408 253.92C248.408 251.773 246.668 250.032 244.52 250.032C242.373 250.032 240.633 251.773 240.633 253.92C240.633 256.067 242.373 257.807 244.52 257.807Z" fill="#AA6100"/>
<path d="M221.814 194.906C227.394 194.906 231.918 190.382 231.918 184.803C231.918 179.223 227.394 174.699 221.814 174.699C216.234 174.699 211.711 179.223 211.711 184.803C211.711 190.382 216.234 194.906 221.814 194.906Z" fill="#CC7400"/>
<path d="M244.52 211.282C246.668 211.282 248.408 209.541 248.408 207.394C248.408 205.247 246.668 203.506 244.52 203.506C242.373 203.506 240.633 205.247 240.633 207.394C240.633 209.541 242.373 211.282 244.52 211.282Z" fill="#CC7400"/>
<path d="M244.52 192.578C246.668 192.578 248.408 190.837 248.408 188.69C248.408 186.543 246.668 184.802 244.52 184.802C242.373 184.802 240.633 186.543 240.633 188.69C240.633 190.837 242.373 192.578 244.52 192.578Z" fill="#CC7400"/>
<path d="M67.2439 191.339C72.8238 191.339 77.3472 186.815 77.3472 181.235C77.3472 175.655 72.8238 171.132 67.2439 171.132C61.664 171.132 57.1406 175.655 57.1406 181.235C57.1406 186.815 61.664 191.339 67.2439 191.339Z" fill="#AA6100"/>
<path d="M50.4658 207.393C52.6129 207.393 54.3535 205.653 54.3535 203.506C54.3535 201.358 52.6129 199.618 50.4658 199.618C48.3187 199.618 46.5781 201.358 46.5781 203.506C46.5781 205.653 48.3187 207.393 50.4658 207.393Z" fill="#AA6100"/>
</svg>
