<svg width="100" height="100" viewBox="0 0 100 100" fill="none" xmlns="http://www.w3.org/2000/svg">
<path d="M29.1654 13.9077C35.294 10.3625 42.4095 8.3335 49.9987 8.3335C73.0104 8.3335 91.6654 26.9883 91.6654 50.0002C91.6654 73.0118 73.0104 91.6668 49.9987 91.6668C26.9868 91.6668 8.33203 73.0118 8.33203 50.0002C8.33203 42.411 10.3611 35.2955 13.9063 29.1668" fill="#EBF8EC"/>
<path d="M29.1654 13.9077C35.294 10.3625 42.4095 8.3335 49.9987 8.3335C73.0104 8.3335 91.6654 26.9883 91.6654 50.0002C91.6654 73.0118 73.0104 91.6668 49.9987 91.6668C26.9868 91.6668 8.33203 73.0118 8.33203 50.0002C8.33203 42.411 10.3611 35.2955 13.9063 29.1668" stroke="#32BC3E" stroke-width="4" stroke-linecap="round"/>
<path d="M35.418 52.0859L43.7513 60.4193L64.5846 39.5859" stroke="#32BC3E" stroke-width="4" stroke-linecap="round" stroke-linejoin="round"/>
</svg>
