<svg width="42" height="42" viewBox="0 0 42 42" fill="none" xmlns="http://www.w3.org/2000/svg">
<path d="M4.11493 23.1236C3.49715 19.1033 3.18826 17.0934 3.9483 15.3114C4.70832 13.5295 6.39455 12.3103 9.767 9.87185L12.2867 8.05C16.482 5.01667 18.5796 3.5 21 3.5C23.4204 3.5 25.518 5.01667 29.7133 8.05L32.2331 9.87185C35.6055 12.3103 37.2916 13.5295 38.0516 15.3114C38.8117 17.0934 38.5028 19.1033 37.885 23.1236L37.3583 26.5517C36.4824 32.2506 36.0446 35.1001 34.0008 36.8001C31.9569 38.5 28.969 38.5 22.9929 38.5H19.0071C13.0311 38.5 10.0431 38.5 7.99925 36.8001C5.95541 35.1001 5.51752 32.2506 4.64175 26.5517L4.11493 23.1236Z" stroke="white" stroke-width="3" stroke-linejoin="round"/>
<path d="M19.6875 23.1875C21.7644 25.2644 24.5 27.3751 24.5 27.3751L28.2501 23.625C28.2501 23.625 26.1394 20.8894 24.0625 18.8125C21.9856 16.7356 19.25 14.625 19.25 14.625L15.5 18.375C15.5 18.375 17.6106 21.1106 19.6875 23.1875ZM19.6875 23.1875L13.125 29.75M28.875 23.0001L23.8751 28M19.8749 14L14.875 18.9999" stroke="white" stroke-width="3" stroke-linecap="round" stroke-linejoin="round"/>
</svg>
