<svg width="72" height="72" viewBox="0 0 72 72" fill="none" xmlns="http://www.w3.org/2000/svg">
<rect width="72" height="72" rx="36" fill="#425190"/>
<path d="M30.75 36.0001L34.25 39.5001L41.25 32.5001M50 37.7501C50 46.5001 43.875 50.8751 36.595 53.4126C36.2138 53.5417 35.7997 53.5356 35.4225 53.3951C28.125 50.8751 22 46.5001 22 37.7501V25.5001C22 25.0359 22.1844 24.5908 22.5126 24.2626C22.8408 23.9344 23.2859 23.7501 23.75 23.7501C27.25 23.7501 31.625 21.6501 34.67 18.9901C35.0407 18.6733 35.5124 18.4993 36 18.4993C36.4876 18.4993 36.9593 18.6733 37.33 18.9901C40.3925 21.6676 44.75 23.7501 48.25 23.7501C48.7141 23.7501 49.1592 23.9344 49.4874 24.2626C49.8156 24.5908 50 25.0359 50 25.5001V37.7501Z" stroke="white" stroke-width="3" stroke-linecap="round" stroke-linejoin="round"/>
</svg>
