<svg width="42" height="42" viewBox="0 0 42 42" fill="none" xmlns="http://www.w3.org/2000/svg">
<path d="M3.5 3.5H28C31.2998 3.5 32.9497 3.5 33.9748 4.52513C35 5.55025 35 7.20017 35 10.5V21C35 24.2998 35 25.9497 33.9748 26.9748C32.9497 28 31.2998 28 28 28H15.75" stroke="white" stroke-width="3" stroke-linecap="round" stroke-linejoin="round"/>
<path d="M17.5 11.375H28" stroke="white" stroke-width="3" stroke-linecap="round" stroke-linejoin="round"/>
<path d="M3.5 29.75V22.75C3.5 21.1001 3.5 20.2752 4.01256 19.7626C4.52513 19.25 5.35008 19.25 7 19.25H10.5M3.5 29.75H10.5M3.5 29.75V38.5M10.5 19.25V29.75M10.5 19.25H15.75H21M10.5 29.75V38.5" stroke="white" stroke-width="3" stroke-linecap="round" stroke-linejoin="round"/>
<path d="M10.5 11.375C10.5 13.308 8.933 14.875 7 14.875C5.067 14.875 3.5 13.308 3.5 11.375C3.5 9.442 5.067 7.875 7 7.875C8.933 7.875 10.5 9.442 10.5 11.375Z" stroke="white" stroke-width="3"/>
</svg>
