<svg width="42" height="42" viewBox="0 0 42 42" fill="none" xmlns="http://www.w3.org/2000/svg">
<path d="M29.75 29.75C27.3338 29.75 25.375 27.7912 25.375 25.375C25.375 22.9588 27.3338 21 29.75 21C32.1662 21 34.125 22.9588 34.125 25.375C34.125 27.7912 32.1662 29.75 29.75 29.75ZM29.75 29.75C34.0993 29.75 37.625 33.2757 37.625 37.625M29.75 29.75C25.4007 29.75 21.875 33.2757 21.875 37.625" stroke="white" stroke-width="3" stroke-linecap="round" stroke-linejoin="round"/>
<path d="M12.25 13.125C9.83376 13.125 7.875 11.1662 7.875 8.75C7.875 6.33376 9.83376 4.375 12.25 4.375C14.6662 4.375 16.625 6.33376 16.625 8.75C16.625 11.1662 14.6662 13.125 12.25 13.125ZM12.25 13.125C16.5992 13.125 20.125 16.6508 20.125 21M12.25 13.125C7.90076 13.125 4.375 16.6508 4.375 21" stroke="white" stroke-width="3" stroke-linecap="round" stroke-linejoin="round"/>
<path d="M6.125 27.125C6.125 31.9625 10.0375 35.875 14.875 35.875L14 32.375" stroke="white" stroke-width="3" stroke-linecap="round" stroke-linejoin="round"/>
<path d="M32.375 14.875C32.375 10.0375 28.4625 6.125 23.625 6.125L24.5 9.625" stroke="white" stroke-width="3" stroke-linecap="round" stroke-linejoin="round"/>
</svg>
